<svg width="48" height="48" viewBox="0 0 48 48" fill="none" xmlns="http://www.w3.org/2000/svg">
<path d="M9 4H39V44H9V4Z" fill="#F2EEFF"/>
<path d="M30 37H32.8L27.8 32L25 34.8L30 39.8V37Z" fill="#17077B"/>
<path d="M18.0002 37H15.2002L20.2002 32L23.0002 34.8L18.0002 39.8V37Z" fill="#17077B"/>
<path d="M15 13H33V17H15V13Z" fill="#1A6CFE"/>
<path d="M15 20H33V22H15V20Z" fill="#1A6CFE"/>
<path d="M24 26C21.2 26 19 28.2 19 31C19 33.8 21.2 36 24 36C26.8 36 29 33.8 29 31C29 28.2 26.8 26 24 26ZM24 34C22.3 34 21 32.7 21 31C21 29.3 22.3 28 24 28C25.7 28 27 29.3 27 31C27 32.7 25.7 34 24 34Z" fill="#1A6CFE"/>
<path d="M8 3V45H40V3H8ZM38 40C36.3 40 35 41.3 35 43H13C13 41.3 11.7 40 10 40V8C11.7 8 13 6.7 13 5H35C35 6.7 36.3 8 38 8V40Z" fill="#1A6CFE"/>
</svg>
