<svg width="76" height="76" viewBox="0 0 76 76" fill="none" xmlns="http://www.w3.org/2000/svg">
<path d="M49.0835 64.9167H12.6668C9.1835 64.9167 6.3335 62.0667 6.3335 58.5833V17.4167C6.3335 13.9333 9.1835 11.0833 12.6668 11.0833H63.3335C66.8168 11.0833 69.6668 13.9333 69.6668 17.4167V44.3333C69.6668 55.7333 60.4835 64.9167 49.0835 64.9167Z" fill="#2D74FF"/>
<path d="M55.4165 30.0833C58.0399 30.0833 60.1665 27.9567 60.1665 25.3333C60.1665 22.71 58.0399 20.5833 55.4165 20.5833C52.7932 20.5833 50.6665 22.71 50.6665 25.3333C50.6665 27.9567 52.7932 30.0833 55.4165 30.0833Z" fill="#8CB2FC"/>
<path d="M31.6667 25.3333L14.25 50.6667H49.0833L31.6667 25.3333Z" fill="#4638EF"/>
<path d="M49.0832 34.8333L36.4165 50.6667H61.7498L49.0832 34.8333Z" fill="#8BB1FC"/>
<path d="M75.525 46.075L71.0917 41.6417C70.4583 41.0083 69.35 41.0083 68.5583 41.6417L66.5 43.7L73.4667 50.6667L75.525 48.6083C76.1583 47.975 76.1583 46.8667 75.525 46.075V46.075Z" fill="#E57373"/>
<path d="M43.4893 66.7644L62.969 47.2863L69.9103 54.2276L50.429 73.7042L43.4893 66.7644Z" fill="#AD00FF"/>
<path d="M73.4666 50.7268L69.9959 54.1975L63.0562 47.2562L66.5268 43.7871L73.4666 50.7268Z" fill="#B0BEC5"/>
<path d="M43.5415 66.8167L41.1665 76L50.3498 73.625L43.5415 66.8167Z" fill="#FFC107"/>
<path d="M42.2748 71.25L41.1665 76L45.9165 74.8917L42.2748 71.25Z" fill="#37474F"/>
</svg>
