<svg width="23" height="23" viewBox="0 0 23 23" fill="none" xmlns="http://www.w3.org/2000/svg">
<path d="M20.6043 8.13433V16.1719C20.6043 17.5615 19.4783 18.6875 18.0887 18.6875H4.91162C4.24444 18.6875 3.60458 18.4225 3.13281 17.9507C2.66103 17.4789 2.396 16.8391 2.396 16.1719V8.13433L11.2117 12.9835C11.3914 13.0822 11.6094 13.0822 11.7886 12.9835L20.6043 8.13385V8.13433ZM18.0887 4.3125C18.7454 4.31256 19.376 4.56941 19.8459 5.02817C20.3158 5.48694 20.5876 6.11125 20.6034 6.76775L11.5002 11.775L2.39695 6.76727L2.39791 6.72415C2.42475 6.07548 2.70132 5.4623 3.16981 5.01284C3.63829 4.56338 4.2624 4.31244 4.91162 4.3125H18.0887Z" fill="#146BFF"/>
</svg>
