<svg width="100" height="100" viewBox="0 0 100 100" fill="none" xmlns="http://www.w3.org/2000/svg">
<g filter="url(#filter0_d_388_72)">
<circle cx="50" cy="49" r="36" fill="#F6F8FF"/>
</g>
<path d="M68.7199 52.84C68.8399 52 68.9599 51.16 68.9599 50.2C68.9599 49.24 68.8399 48.4 68.7199 47.56L74.1199 43.72C74.5999 43.36 74.8399 42.64 74.4799 42.04L69.1999 33.16C68.8399 32.56 68.2399 32.32 67.6399 32.68L61.6399 35.44C60.1999 34.36 58.7599 33.52 57.0799 32.8L56.4799 26.2C56.3599 25.6 55.8799 25.12 55.2799 25.12H44.9599C44.3599 25.12 43.7599 25.6 43.7599 26.2L43.1599 32.8C41.4799 33.52 39.9199 34.36 38.5999 35.44L32.5999 32.68C31.9999 32.44 31.2799 32.68 31.0399 33.16L25.8799 42.04C25.5199 42.64 25.7599 43.36 26.2399 43.72L31.6399 47.56C31.5199 48.4 31.3999 49.24 31.3999 50.2C31.3999 51.16 31.5199 52 31.6399 52.84L25.9999 56.68C25.5199 57.04 25.2799 57.76 25.6399 58.36L30.7999 67.24C31.1599 67.84 31.7599 68.08 32.3599 67.72L38.3599 64.96C39.7999 66.04 41.2399 66.88 42.9199 67.6L43.5199 74.2C43.6399 74.8 44.1199 75.28 44.7199 75.28H55.0399C55.6399 75.28 56.2399 74.8 56.2399 74.2L56.8399 67.6C58.5199 66.88 60.0799 66.04 61.3999 64.96L67.3999 67.72C67.9999 67.96 68.7199 67.72 68.9599 67.24L74.1199 58.36C74.4799 57.76 74.2399 57.04 73.7599 56.68L68.7199 52.84ZM49.9999 62.2C43.3999 62.2 37.9999 56.8 37.9999 50.2C37.9999 43.6 43.3999 38.2 49.9999 38.2C56.5999 38.2 61.9999 43.6 61.9999 50.2C61.9999 56.8 56.5999 62.2 49.9999 62.2Z" fill="#7ED8F6"/>
<path d="M49.3999 35.8C41.8099 35.8 35.5999 42.01 35.5999 49.6C35.5999 57.19 41.8099 63.4 49.3999 63.4C56.9899 63.4 63.1999 57.19 63.1999 49.6C63.1999 42.01 56.9899 35.8 49.3999 35.8ZM49.3999 55.35C46.1799 55.35 43.6499 52.82 43.6499 49.6C43.6499 46.38 46.1799 43.85 49.3999 43.85C52.6199 43.85 55.1499 46.38 55.1499 49.6C55.1499 52.82 52.6199 55.35 49.3999 55.35Z" fill="#6AA9FF"/>
<mask id="mask0_388_72" style="mask-type:alpha" maskUnits="userSpaceOnUse" x="21" y="20" width="58" height="58">
<path d="M68.7199 52.84C68.8399 52 68.9599 51.16 68.9599 50.2C68.9599 49.24 68.8399 48.4 68.7199 47.56L74.1199 43.72C74.5999 43.36 74.8399 42.64 74.4799 42.04L69.1999 33.16C68.8399 32.56 68.2399 32.32 67.6399 32.68L61.6399 35.44C60.1999 34.36 58.7599 33.52 57.0799 32.8L56.4799 26.2C56.3599 25.6 55.8799 25.12 55.2799 25.12H44.9599C44.3599 25.12 43.7599 25.6 43.7599 26.2L43.1599 32.8C41.4799 33.52 39.9199 34.36 38.5999 35.44L32.5999 32.68C31.9999 32.44 31.2799 32.68 31.0399 33.16L25.8799 42.04C25.5199 42.64 25.7599 43.36 26.2399 43.72L31.6399 47.56C31.5199 48.4 31.3999 49.24 31.3999 50.2C31.3999 51.16 31.5199 52 31.6399 52.84L25.9999 56.68C25.5199 57.04 25.2799 57.76 25.6399 58.36L30.7999 67.24C31.1599 67.84 31.7599 68.08 32.3599 67.72L38.3599 64.96C39.7999 66.04 41.2399 66.88 42.9199 67.6L43.5199 74.2C43.6399 74.8 44.1199 75.28 44.7199 75.28H55.0399C55.6399 75.28 56.2399 74.8 56.2399 74.2L56.8399 67.6C58.5199 66.88 60.0799 66.04 61.3999 64.96L67.3999 67.72C67.9999 67.96 68.7199 67.72 68.9599 67.24L74.1199 58.36C74.4799 57.76 74.2399 57.04 73.7599 56.68L68.7199 52.84ZM49.9999 62.2C43.3999 62.2 37.9999 56.8 37.9999 50.2C37.9999 43.6 43.3999 38.2 49.9999 38.2C56.5999 38.2 61.9999 43.6 61.9999 50.2C61.9999 56.8 56.5999 62.2 49.9999 62.2Z" fill="#7ED8F6"/>
<path d="M49.3999 35.8C41.8099 35.8 35.5999 42.01 35.5999 49.6C35.5999 57.19 41.8099 63.4 49.3999 63.4C56.9899 63.4 63.1999 57.19 63.1999 49.6C63.1999 42.01 56.9899 35.8 49.3999 35.8ZM49.3999 55.35C46.1799 55.35 43.6499 52.82 43.6499 49.6C43.6499 46.38 46.1799 43.85 49.3999 43.85C52.6199 43.85 55.1499 46.38 55.1499 49.6C55.1499 52.82 52.6199 55.35 49.3999 55.35Z" fill="#6AA9FF"/>
</mask>
<g mask="url(#mask0_388_72)">
<rect x="50" y="13" width="33.6" height="69.6" fill="#4761EC" fill-opacity="0.46"/>
</g>
<defs>
<filter id="filter0_d_388_72" x="0" y="0" width="100" height="100" filterUnits="userSpaceOnUse" color-interpolation-filters="sRGB">
<feFlood flood-opacity="0" result="BackgroundImageFix"/>
<feColorMatrix in="SourceAlpha" type="matrix" values="0 0 0 0 0 0 0 0 0 0 0 0 0 0 0 0 0 0 127 0" result="hardAlpha"/>
<feOffset dy="1"/>
<feGaussianBlur stdDeviation="7"/>
<feComposite in2="hardAlpha" operator="out"/>
<feColorMatrix type="matrix" values="0 0 0 0 0.0905382 0 0 0 0 0.269828 0 0 0 0 0.620833 0 0 0 0.22 0"/>
<feBlend mode="normal" in2="BackgroundImageFix" result="effect1_dropShadow_388_72"/>
<feBlend mode="normal" in="SourceGraphic" in2="effect1_dropShadow_388_72" result="shape"/>
</filter>
</defs>
</svg>
