<svg width="100" height="100" viewBox="0 0 100 100" fill="none" xmlns="http://www.w3.org/2000/svg">
<g filter="url(#filter0_d_390_42)">
<circle cx="50" cy="49" r="36" fill="#F6F8FF"/>
</g>
<path d="M57.2 73L52.4 77.8H47.6L42.8 73V49H57.2V58.6L54.8 61L57.2 63.4V65.8L54.8 68.2L57.2 70.6V73Z" fill="#FFA000"/>
<path d="M66.8 33.16C66.2 31 64.4 29.44 62.36 28.84C59.48 28.24 55.04 27.4 50 27.4C44.96 27.4 40.52 28.24 37.64 28.84C35.6 29.44 33.8 31 33.2 33.16C32.6 35.2 32 38.08 32 41.2C32 44.32 32.6 47.2 33.2 49.24C33.8 51.4 35.48 52.96 37.64 53.44C40.52 54.16 44.96 55 50 55C55.04 55 59.48 54.16 62.36 53.56C64.52 53.08 66.2 51.4 66.8 49.36C67.4 47.32 68 44.44 68 41.32C68 38.08 67.4 35.2 66.8 33.16ZM56 39.4H44C42.68 39.4 41.6 38.32 41.6 37V34.6C41.6 33.88 45.32 33.4 50 33.4C54.68 33.4 58.4 33.88 58.4 34.6V37C58.4 38.32 57.32 39.4 56 39.4Z" fill="#FFA000"/>
<path d="M48.8 55H51.2V77.8H48.8V55Z" fill="#D68600"/>
<defs>
<filter id="filter0_d_390_42" x="0" y="0" width="100" height="100" filterUnits="userSpaceOnUse" color-interpolation-filters="sRGB">
<feFlood flood-opacity="0" result="BackgroundImageFix"/>
<feColorMatrix in="SourceAlpha" type="matrix" values="0 0 0 0 0 0 0 0 0 0 0 0 0 0 0 0 0 0 127 0" result="hardAlpha"/>
<feOffset dy="1"/>
<feGaussianBlur stdDeviation="7"/>
<feComposite in2="hardAlpha" operator="out"/>
<feColorMatrix type="matrix" values="0 0 0 0 0.0905382 0 0 0 0 0.269828 0 0 0 0 0.620833 0 0 0 0.22 0"/>
<feBlend mode="normal" in2="BackgroundImageFix" result="effect1_dropShadow_390_42"/>
<feBlend mode="normal" in="SourceGraphic" in2="effect1_dropShadow_390_42" result="shape"/>
</filter>
</defs>
</svg>
