<svg width="100" height="100" viewBox="0 0 100 100" fill="none" xmlns="http://www.w3.org/2000/svg">
<g filter="url(#filter0_d_388_68)">
<circle cx="50" cy="49" r="36" fill="url(#paint0_linear_388_68)"/>
</g>
<path d="M49.9997 29.3448C48.056 29.3448 46.1559 29.9212 44.5398 31.0011C42.9237 32.081 41.664 33.6158 40.9202 35.4116C40.1764 37.2073 39.9818 39.1833 40.361 41.0897C40.7402 42.9961 41.6762 44.7472 43.0506 46.1216C44.425 47.496 46.1761 48.432 48.0825 48.8112C49.9888 49.1904 51.9648 48.9958 53.7606 48.2519C55.5563 47.5081 57.0912 46.2485 58.1711 44.6323C59.2509 43.0162 59.8273 41.1161 59.8273 39.1724C59.8273 36.566 58.7919 34.0663 56.9489 32.2233C55.1058 30.3803 52.6062 29.3448 49.9997 29.3448V29.3448ZM49.9997 45.069C48.8335 45.069 47.6935 44.7232 46.7238 44.0752C45.7541 43.4273 44.9983 42.5064 44.552 41.4289C44.1057 40.3515 43.9889 39.1659 44.2165 38.0221C44.444 36.8783 45.0056 35.8276 45.8302 35.0029C46.6549 34.1783 47.7055 33.6167 48.8494 33.3892C49.9932 33.1617 51.1788 33.2784 52.2562 33.7247C53.3337 34.171 54.2546 34.9268 54.9025 35.8965C55.5504 36.8662 55.8963 38.0062 55.8963 39.1724C55.8963 40.7363 55.275 42.2361 54.1692 43.3419C53.0634 44.4477 51.5636 45.069 49.9997 45.069V45.069ZM67.6894 66.6897V64.7242C67.6894 61.0751 66.2398 57.5756 63.6596 54.9953C61.0793 52.4151 57.5798 50.9655 53.9308 50.9655H46.0687C42.4197 50.9655 38.9201 52.4151 36.3399 54.9953C33.7596 57.5756 32.3101 61.0751 32.3101 64.7242V66.6897H36.2411V64.7242C36.2411 62.1177 37.2765 59.618 39.1195 57.775C40.9626 55.932 43.4622 54.8966 46.0687 54.8966H53.9308C56.5372 54.8966 59.0369 55.932 60.8799 57.775C62.7229 59.618 63.7583 62.1177 63.7583 64.7242V66.6897H67.6894Z" fill="white"/>
<defs>
<filter id="filter0_d_388_68" x="0" y="0" width="100" height="100" filterUnits="userSpaceOnUse" color-interpolation-filters="sRGB">
<feFlood flood-opacity="0" result="BackgroundImageFix"/>
<feColorMatrix in="SourceAlpha" type="matrix" values="0 0 0 0 0 0 0 0 0 0 0 0 0 0 0 0 0 0 127 0" result="hardAlpha"/>
<feOffset dy="1"/>
<feGaussianBlur stdDeviation="7"/>
<feComposite in2="hardAlpha" operator="out"/>
<feColorMatrix type="matrix" values="0 0 0 0 0.0905382 0 0 0 0 0.269828 0 0 0 0 0.620833 0 0 0 0.22 0"/>
<feBlend mode="normal" in2="BackgroundImageFix" result="effect1_dropShadow_388_68"/>
<feBlend mode="normal" in="SourceGraphic" in2="effect1_dropShadow_388_68" result="shape"/>
</filter>
<linearGradient id="paint0_linear_388_68" x1="50" y1="13" x2="50" y2="85" gradientUnits="userSpaceOnUse">
<stop stop-color="#0F6FFF"/>
<stop offset="1" stop-color="#8450F2"/>
</linearGradient>
</defs>
</svg>
