<svg width="48" height="48" viewBox="0 0 48 48" fill="none" xmlns="http://www.w3.org/2000/svg">
<path d="M39.6001 27.2C39.7001 26.5 39.8001 25.8 39.8001 25C39.8001 24.2 39.7001 23.5 39.6001 22.8L44.1001 19.6C44.5001 19.3 44.7001 18.7 44.4001 18.2L40.0001 10.8C39.7001 10.3 39.2001 10.1 38.7001 10.4L33.7001 12.7C32.5001 11.8 31.3001 11.1 29.9001 10.5L29.4001 4.99998C29.3001 4.49998 28.9001 4.09998 28.4001 4.09998H19.8001C19.3001 4.09998 18.8001 4.49998 18.8001 4.99998L18.3001 10.5C16.9001 11.1 15.6001 11.8 14.5001 12.7L9.50011 10.4C9.00011 10.2 8.40011 10.4 8.20011 10.8L3.90011 18.2C3.60011 18.7 3.80011 19.3 4.20011 19.6L8.70011 22.8C8.60011 23.5 8.50011 24.2 8.50011 25C8.50011 25.8 8.60011 26.5 8.70011 27.2L4.00011 30.4C3.60011 30.7 3.40011 31.3 3.70011 31.8L8.00011 39.2C8.30011 39.7 8.80011 39.9 9.30011 39.6L14.3001 37.3C15.5001 38.2 16.7001 38.9 18.1001 39.5L18.6001 45C18.7001 45.5 19.1001 45.9 19.6001 45.9H28.2001C28.7001 45.9 29.2001 45.5 29.2001 45L29.7001 39.5C31.1001 38.9 32.4001 38.2 33.5001 37.3L38.5001 39.6C39.0001 39.8 39.6001 39.6 39.8001 39.2L44.1001 31.8C44.4001 31.3 44.2001 30.7 43.8001 30.4L39.6001 27.2ZM24.0001 35C18.5001 35 14.0001 30.5 14.0001 25C14.0001 19.5 18.5001 15 24.0001 15C29.5001 15 34.0001 19.5 34.0001 25C34.0001 30.5 29.5001 35 24.0001 35Z" fill="#7ED8F6"/>
<path d="M23.5 13C17.175 13 12 18.175 12 24.5C12 30.825 17.175 36 23.5 36C29.825 36 35 30.825 35 24.5C35 18.175 29.825 13 23.5 13ZM23.5 29.2917C20.8167 29.2917 18.7083 27.1833 18.7083 24.5C18.7083 21.8167 20.8167 19.7083 23.5 19.7083C26.1833 19.7083 28.2917 21.8167 28.2917 24.5C28.2917 27.1833 26.1833 29.2917 23.5 29.2917Z" fill="#6AA9FF"/>
<mask id="mask0_104_23" style="mask-type:alpha" maskUnits="userSpaceOnUse" x="0" y="0" width="48" height="48">
<path d="M39.6001 27.2C39.7001 26.5 39.8001 25.8 39.8001 25C39.8001 24.2 39.7001 23.5 39.6001 22.8L44.1001 19.6C44.5001 19.3 44.7001 18.7 44.4001 18.2L40.0001 10.8C39.7001 10.3 39.2001 10.1 38.7001 10.4L33.7001 12.7C32.5001 11.8 31.3001 11.1 29.9001 10.5L29.4001 4.99998C29.3001 4.49998 28.9001 4.09998 28.4001 4.09998H19.8001C19.3001 4.09998 18.8001 4.49998 18.8001 4.99998L18.3001 10.5C16.9001 11.1 15.6001 11.8 14.5001 12.7L9.50011 10.4C9.00011 10.2 8.40011 10.4 8.20011 10.8L3.90011 18.2C3.60011 18.7 3.80011 19.3 4.20011 19.6L8.70011 22.8C8.60011 23.5 8.50011 24.2 8.50011 25C8.50011 25.8 8.60011 26.5 8.70011 27.2L4.00011 30.4C3.60011 30.7 3.40011 31.3 3.70011 31.8L8.00011 39.2C8.30011 39.7 8.80011 39.9 9.30011 39.6L14.3001 37.3C15.5001 38.2 16.7001 38.9 18.1001 39.5L18.6001 45C18.7001 45.5 19.1001 45.9 19.6001 45.9H28.2001C28.7001 45.9 29.2001 45.5 29.2001 45L29.7001 39.5C31.1001 38.9 32.4001 38.2 33.5001 37.3L38.5001 39.6C39.0001 39.8 39.6001 39.6 39.8001 39.2L44.1001 31.8C44.4001 31.3 44.2001 30.7 43.8001 30.4L39.6001 27.2ZM24.0001 35C18.5001 35 14.0001 30.5 14.0001 25C14.0001 19.5 18.5001 15 24.0001 15C29.5001 15 34.0001 19.5 34.0001 25C34.0001 30.5 29.5001 35 24.0001 35Z" fill="#7ED8F6"/>
<path d="M23.5 13C17.175 13 12 18.175 12 24.5C12 30.825 17.175 36 23.5 36C29.825 36 35 30.825 35 24.5C35 18.175 29.825 13 23.5 13ZM23.5 29.2917C20.8167 29.2917 18.7083 27.1833 18.7083 24.5C18.7083 21.8167 20.8167 19.7083 23.5 19.7083C26.1833 19.7083 28.2917 21.8167 28.2917 24.5C28.2917 27.1833 26.1833 29.2917 23.5 29.2917Z" fill="#6AA9FF"/>
</mask>
<g mask="url(#mask0_104_23)">
<rect x="24" y="-6" width="28" height="58" fill="#4761EC" fill-opacity="0.46"/>
</g>
</svg>
