<svg width="40" height="40" viewBox="0 0 40 40" fill="none" xmlns="http://www.w3.org/2000/svg">
<path d="M15.625 12.4102H18.5117V25.625C18.5117 25.7969 18.6523 25.9375 18.8242 25.9375H21.168C21.3398 25.9375 21.4805 25.7969 21.4805 25.625V12.4102H24.375C24.6367 12.4102 24.7812 12.1094 24.6211 11.9063L20.2461 6.36722C20.2169 6.32987 20.1795 6.29966 20.1369 6.27888C20.0942 6.25811 20.0474 6.24731 20 6.24731C19.9526 6.24731 19.9058 6.25811 19.8631 6.27888C19.8205 6.29966 19.7831 6.32987 19.7539 6.36722L15.3789 11.9024C15.2188 12.1094 15.3633 12.4102 15.625 12.4102V12.4102ZM34.2969 24.4532H31.9531C31.7812 24.4532 31.6406 24.5938 31.6406 24.7657V30.7813H8.35938V24.7657C8.35938 24.5938 8.21875 24.4532 8.04688 24.4532H5.70312C5.53125 24.4532 5.39062 24.5938 5.39062 24.7657V32.5C5.39062 33.1914 5.94922 33.75 6.64062 33.75H33.3594C34.0508 33.75 34.6094 33.1914 34.6094 32.5V24.7657C34.6094 24.5938 34.4688 24.4532 34.2969 24.4532Z" fill="#146BFF"/>
</svg>
