<svg width="49" height="45" viewBox="0 0 49 45" fill="none" xmlns="http://www.w3.org/2000/svg">
<path d="M24.4998 4.20984C22.5291 4.20984 20.6026 4.74619 18.9641 5.75107C17.3255 6.75595 16.0483 8.18422 15.2942 9.85527C14.54 11.5263 14.3427 13.3651 14.7272 15.1391C15.1116 16.9131 16.0606 18.5426 17.4541 19.8215C18.8476 21.1005 20.6231 21.9715 22.5559 22.3243C24.4887 22.6772 26.4922 22.4961 28.3129 21.8039C30.1336 21.1118 31.6898 19.9396 32.7846 18.4357C33.8795 16.9318 34.4639 15.1637 34.4639 13.355C34.4639 10.9295 33.4141 8.60342 31.5455 6.88838C29.6768 5.17334 27.1424 4.20984 24.4998 4.20984ZM24.4998 18.842C23.3174 18.842 22.1615 18.5202 21.1784 17.9173C20.1952 17.3144 19.4289 16.4574 18.9764 15.4548C18.5239 14.4521 18.4055 13.3489 18.6362 12.2845C18.8669 11.2201 19.4363 10.2424 20.2724 9.47501C21.1085 8.70763 22.1738 8.18504 23.3335 7.97332C24.4932 7.7616 25.6952 7.87026 26.7877 8.28556C27.8801 8.70087 28.8138 9.40416 29.4707 10.3065C30.1276 11.2088 30.4782 12.2697 30.4782 13.355C30.4782 14.8102 29.8484 16.2059 28.7272 17.2349C27.606 18.2639 26.0854 18.842 24.4998 18.842ZM42.4351 38.9613V37.1322C42.4351 33.7366 40.9655 30.4801 38.3494 28.079C35.7333 25.678 32.1851 24.3291 28.4854 24.3291H20.5142C16.8145 24.3291 13.2663 25.678 10.6502 28.079C8.03415 30.4801 6.56445 33.7366 6.56445 37.1322V38.9613H10.5501V37.1322C10.5501 34.7068 11.5999 32.3807 13.4685 30.6657C15.3371 28.9506 17.8715 27.9871 20.5142 27.9871H28.4854C31.1281 27.9871 33.6625 28.9506 35.5311 30.6657C37.3997 32.3807 38.4495 34.7068 38.4495 37.1322V38.9613H42.4351Z" fill="white"/>
</svg>
