<svg width="291" height="82" viewBox="0 0 291 82" fill="none" xmlns="http://www.w3.org/2000/svg">
<path d="M116.228 42.825C117.88 42.825 119.139 42.4513 120.004 41.704C120.909 40.9173 121.361 39.7373 121.361 38.164C121.361 36.6693 120.889 35.5287 119.945 34.742C119.04 33.916 117.703 33.503 115.933 33.503C115.304 33.503 114.773 33.5227 114.34 33.562C113.947 33.562 113.534 33.6013 113.101 33.68V42.825H116.228ZM113.16 61.764C112.727 61.882 112.039 62 111.095 62.118C110.19 62.236 109.286 62.295 108.381 62.295C107.476 62.295 106.67 62.2163 105.962 62.059C105.293 61.941 104.723 61.705 104.251 61.351C103.779 60.997 103.425 60.5053 103.189 59.876C102.953 59.2467 102.835 58.4207 102.835 57.398V29.609C102.835 28.783 103.051 28.1537 103.484 27.721C103.956 27.249 104.585 26.8753 105.372 26.6C106.709 26.128 108.224 25.7937 109.915 25.597C111.646 25.361 113.376 25.243 115.107 25.243C120.535 25.243 124.685 26.4033 127.556 28.724C130.427 31.0447 131.863 34.1913 131.863 38.164C131.863 40.0913 131.548 41.8417 130.919 43.415C130.329 44.949 129.424 46.2863 128.205 47.427C127.025 48.5283 125.511 49.3937 123.662 50.023C121.853 50.613 119.748 50.908 117.349 50.908H113.16V61.764ZM145.228 61.941C144.835 62.059 144.205 62.177 143.34 62.295C142.514 62.413 141.649 62.472 140.744 62.472C139.879 62.472 139.092 62.413 138.384 62.295C137.715 62.177 137.145 61.941 136.673 61.587C136.201 61.233 135.827 60.761 135.552 60.171C135.316 59.5417 135.198 58.7353 135.198 57.752V40.052C135.198 39.1473 135.355 38.3803 135.67 37.751C136.024 37.0823 136.516 36.4923 137.145 35.981C137.774 35.4697 138.541 35.0173 139.446 34.624C140.39 34.1913 141.393 33.8177 142.455 33.503C143.517 33.1883 144.618 32.9523 145.759 32.795C146.9 32.5983 148.04 32.5 149.181 32.5C151.069 32.5 152.564 32.8737 153.665 33.621C154.766 34.329 155.317 35.509 155.317 37.161C155.317 37.7117 155.238 38.2623 155.081 38.813C154.924 39.3243 154.727 39.7963 154.491 40.229C153.665 40.229 152.819 40.2683 151.954 40.347C151.089 40.4257 150.243 40.5437 149.417 40.701C148.591 40.8583 147.804 41.0353 147.057 41.232C146.349 41.3893 145.739 41.586 145.228 41.822V61.941ZM173.523 62.944C171.202 62.944 169.039 62.6293 167.033 62C165.066 61.3313 163.336 60.348 161.841 59.05C160.386 57.752 159.225 56.1197 158.36 54.153C157.534 52.1863 157.121 49.8853 157.121 47.25C157.121 44.654 157.534 42.4317 158.36 40.583C159.225 38.695 160.346 37.161 161.723 35.981C163.1 34.7617 164.673 33.8767 166.443 33.326C168.213 32.736 170.022 32.441 171.871 32.441C173.956 32.441 175.844 32.7557 177.535 33.385C179.266 34.0143 180.741 34.8797 181.96 35.981C183.219 37.0823 184.182 38.4 184.851 39.934C185.559 41.468 185.913 43.1397 185.913 44.949C185.913 46.2863 185.539 47.309 184.792 48.017C184.045 48.725 183.002 49.1773 181.665 49.374L167.092 51.557C167.525 52.855 168.41 53.8383 169.747 54.507C171.084 55.1363 172.618 55.451 174.349 55.451C175.962 55.451 177.476 55.2543 178.892 54.861C180.347 54.4283 181.527 53.9367 182.432 53.386C183.061 53.7793 183.592 54.33 184.025 55.038C184.458 55.746 184.674 56.4933 184.674 57.28C184.674 59.05 183.848 60.3677 182.196 61.233C180.937 61.9017 179.521 62.354 177.948 62.59C176.375 62.826 174.9 62.944 173.523 62.944ZM171.871 39.757C170.927 39.757 170.101 39.9143 169.393 40.229C168.724 40.5437 168.174 40.9567 167.741 41.468C167.308 41.94 166.974 42.4907 166.738 43.12C166.541 43.71 166.423 44.3197 166.384 44.949L176.473 43.297C176.355 42.5103 175.922 41.7237 175.175 40.937C174.428 40.1503 173.326 39.757 171.871 39.757ZM191.744 62C191.115 61.4493 190.603 60.8003 190.21 60.053C189.856 59.3057 189.679 58.46 189.679 57.516C189.679 56.7293 189.856 55.9623 190.21 55.215C190.603 54.4283 191.075 53.7007 191.626 53.032L201.774 41.114H190.918C190.682 40.6813 190.446 40.1307 190.21 39.462C190.013 38.7933 189.915 38.0657 189.915 37.279C189.915 35.9023 190.21 34.919 190.8 34.329C191.429 33.6997 192.255 33.385 193.278 33.385H211.863C212.492 33.9357 212.984 34.5847 213.338 35.332C213.731 36.0793 213.928 36.925 213.928 37.869C213.928 38.6557 213.731 39.4423 213.338 40.229C212.984 40.9763 212.532 41.6843 211.981 42.353L202.069 54.271H213.633C213.869 54.7037 214.085 55.2543 214.282 55.923C214.518 56.5917 214.636 57.3193 214.636 58.106C214.636 59.4827 214.321 60.4857 213.692 61.115C213.102 61.705 212.296 62 211.273 62H191.744ZM233.733 62.944C231.412 62.944 229.249 62.6293 227.243 62C225.276 61.3313 223.546 60.348 222.051 59.05C220.596 57.752 219.435 56.1197 218.57 54.153C217.744 52.1863 217.331 49.8853 217.331 47.25C217.331 44.654 217.744 42.4317 218.57 40.583C219.435 38.695 220.556 37.161 221.933 35.981C223.31 34.7617 224.883 33.8767 226.653 33.326C228.423 32.736 230.232 32.441 232.081 32.441C234.166 32.441 236.054 32.7557 237.745 33.385C239.476 34.0143 240.951 34.8797 242.17 35.981C243.429 37.0823 244.392 38.4 245.061 39.934C245.769 41.468 246.123 43.1397 246.123 44.949C246.123 46.2863 245.749 47.309 245.002 48.017C244.255 48.725 243.212 49.1773 241.875 49.374L227.302 51.557C227.735 52.855 228.62 53.8383 229.957 54.507C231.294 55.1363 232.828 55.451 234.559 55.451C236.172 55.451 237.686 55.2543 239.102 54.861C240.557 54.4283 241.737 53.9367 242.642 53.386C243.271 53.7793 243.802 54.33 244.235 55.038C244.668 55.746 244.884 56.4933 244.884 57.28C244.884 59.05 244.058 60.3677 242.406 61.233C241.147 61.9017 239.731 62.354 238.158 62.59C236.585 62.826 235.11 62.944 233.733 62.944ZM232.081 39.757C231.137 39.757 230.311 39.9143 229.603 40.229C228.934 40.5437 228.384 40.9567 227.951 41.468C227.518 41.94 227.184 42.4907 226.948 43.12C226.751 43.71 226.633 44.3197 226.594 44.949L236.683 43.297C236.565 42.5103 236.132 41.7237 235.385 40.937C234.638 40.1503 233.536 39.757 232.081 39.757ZM260.981 61.941C260.587 62.059 259.958 62.177 259.093 62.295C258.267 62.413 257.401 62.472 256.497 62.472C255.631 62.472 254.845 62.413 254.137 62.295C253.468 62.177 252.898 61.941 252.426 61.587C251.954 61.233 251.58 60.761 251.305 60.171C251.069 59.5417 250.951 58.7353 250.951 57.752V40.052C250.951 39.1473 251.108 38.3803 251.423 37.751C251.777 37.0823 252.268 36.4923 252.898 35.981C253.527 35.4697 254.294 35.0173 255.199 34.624C256.143 34.1913 257.146 33.8177 258.208 33.503C259.27 33.1883 260.371 32.9523 261.512 32.795C262.652 32.5983 263.793 32.5 264.934 32.5C266.822 32.5 268.316 32.8737 269.418 33.621C270.519 34.329 271.07 35.509 271.07 37.161C271.07 37.7117 270.991 38.2623 270.834 38.813C270.676 39.3243 270.48 39.7963 270.244 40.229C269.418 40.229 268.572 40.2683 267.707 40.347C266.841 40.4257 265.996 40.5437 265.17 40.701C264.344 40.8583 263.557 41.0353 262.81 41.232C262.102 41.3893 261.492 41.586 260.981 41.822V61.941Z" fill="url(#paint0_linear_55_95)"/>
<g clip-path="url(#clip0_55_95)">
<path d="M46.8667 75.5333H44.4C44.4 75.9914 44.5276 76.4405 44.7684 76.8301C45.0092 77.2198 45.3538 77.5347 45.7635 77.7396C46.1733 77.9445 46.6319 78.0312 47.0882 77.99C47.5444 77.9489 47.9802 77.7815 48.3467 77.5067L46.8667 75.5333ZM56.7333 68.1333L58.2133 66.16C57.7864 65.8398 57.267 65.6667 56.7333 65.6667C56.1996 65.6667 55.6803 65.8398 55.2533 66.16L56.7333 68.1333ZM66.6 75.5333L65.12 77.5067C65.4865 77.7815 65.9222 77.9489 66.3785 77.99C66.8347 78.0312 67.2934 77.9445 67.7031 77.7396C68.1129 77.5347 68.4574 77.2198 68.6983 76.8301C68.9391 76.4405 69.0667 75.9914 69.0667 75.5333H66.6ZM56.7333 58.2667C53.4623 58.2667 50.3253 56.9673 48.0123 54.6543C45.6994 52.3414 44.4 49.2043 44.4 45.9333H39.4667C39.4667 50.5127 41.2858 54.9046 44.524 58.1427C47.7621 61.3808 52.1539 63.2 56.7333 63.2V58.2667ZM69.0667 45.9333C69.0667 49.2043 67.7673 52.3414 65.4543 54.6543C63.1414 56.9673 60.0043 58.2667 56.7333 58.2667V63.2C61.3127 63.2 65.7046 61.3808 68.9427 58.1427C72.1808 54.9046 74 50.5127 74 45.9333H69.0667ZM56.7333 33.6C60.0043 33.6 63.1414 34.8994 65.4543 37.2124C67.7673 39.5253 69.0667 42.6623 69.0667 45.9333H74C74 41.3539 72.1808 36.9621 68.9427 33.724C65.7046 30.4858 61.3127 28.6667 56.7333 28.6667V33.6ZM56.7333 28.6667C52.1539 28.6667 47.7621 30.4858 44.524 33.724C41.2858 36.9621 39.4667 41.3539 39.4667 45.9333H44.4C44.4 42.6623 45.6994 39.5253 48.0123 37.2124C50.3253 34.8994 53.4623 33.6 56.7333 33.6V28.6667ZM44.4 55.8V75.5333H49.3333V55.8H44.4ZM48.3467 77.5067L58.2133 70.1067L55.2533 66.16L45.3867 73.56L48.3467 77.5067ZM55.2533 70.1067L65.12 77.5067L68.08 73.56L58.2133 66.16L55.2533 70.1067ZM69.0667 75.5333V55.8H64.1333V75.5333H69.0667ZM74 28.6667V11.4H69.0667V28.6667H74ZM66.6 4H7.4V8.93333H66.6V4ZM0 11.4V70.6H4.93333V11.4H0ZM7.4 78H39.4667V73.0667H7.4V78ZM0 70.6C0 72.5626 0.779641 74.4448 2.16741 75.8326C3.55518 77.2204 5.4374 78 7.4 78V73.0667C6.7458 73.0667 6.11839 72.8068 5.6558 72.3442C5.19321 71.8816 4.93333 71.2542 4.93333 70.6H0ZM7.4 4C5.4374 4 3.55518 4.77964 2.16741 6.16741C0.779641 7.55518 0 9.4374 0 11.4H4.93333C4.93333 10.7458 5.19321 10.1184 5.6558 9.6558C6.11839 9.19321 6.7458 8.93333 7.4 8.93333V4ZM74 11.4C74 9.4374 73.2204 7.55518 71.8326 6.16741C70.4448 4.77964 68.5626 4 66.6 4V8.93333C67.2542 8.93333 67.8816 9.19321 68.3442 9.6558C68.8068 10.1184 69.0667 10.7458 69.0667 11.4H74ZM14.8 28.6667H39.4667V23.7333H14.8V28.6667ZM14.8 43.4667H29.6V38.5333H14.8V43.4667Z" fill="#146BFF"/>
</g>
<defs>
<linearGradient id="paint0_linear_55_95" x1="83.6809" y1="49.5417" x2="416.483" y2="37.3358" gradientUnits="userSpaceOnUse">
<stop stop-color="#007AFF"/>
<stop offset="1" stop-color="#9E00FF"/>
</linearGradient>
<clipPath id="clip0_55_95">
<rect y="4" width="74" height="74" fill="white"/>
</clipPath>
</defs>
</svg>
