<svg width="98" height="88" viewBox="0 0 98 88" fill="none" xmlns="http://www.w3.org/2000/svg">
<path d="M49 10.1563C48.6977 10.1563 48.3955 10.2172 48.1184 10.3391L24.1903 21.907C23.6866 22.1508 23.6866 22.5327 24.1903 22.7764L48.1184 34.3484C48.3977 34.4708 48.6973 34.5338 49 34.5338C49.3027 34.5338 49.6023 34.4708 49.8816 34.3484L73.8097 22.7764C74.3134 22.5327 74.3134 22.1508 73.8097 21.907L49.8816 10.3391C49.6021 10.2176 49.3025 10.1555 49 10.1563V10.1563ZM49 14.3853L65.4533 22.3438L49 30.3022L32.5467 22.3438L49 14.3853ZM27.3775 29.3455L24.1903 31.0172C23.6866 31.2813 23.6866 31.6875 24.1903 31.9516L48.1184 44.4884C48.3954 44.6201 48.6959 44.6882 49 44.6882C49.3041 44.6882 49.6046 44.6201 49.8816 44.4884L73.8097 31.9516C74.3134 31.6875 74.3134 31.2813 73.8097 31.0172L70.6225 29.3455L49.8816 40.2127C49.6046 40.3443 49.3041 40.4124 49 40.4124C48.6959 40.4124 48.3954 40.3443 48.1184 40.2127L27.3775 29.3455ZM27.3775 39.5017L24.1903 41.1734C23.6866 41.4375 23.6866 41.8438 24.1903 42.1078L48.1184 54.6447C48.3954 54.7763 48.6959 54.8444 49 54.8444C49.3041 54.8444 49.6046 54.7763 49.8816 54.6447L73.8097 42.1078C74.3134 41.8438 74.3134 41.4375 73.8097 41.1734L70.6225 39.5017L49.8816 50.3689C49.6046 50.5005 49.3041 50.5686 49 50.5686C48.6959 50.5686 48.3954 50.5005 48.1184 50.3689L27.3775 39.5017Z" fill="url(#paint0_radial_154_13)"/>
<path d="M8.172 72.2758V79.2238C7.908 79.2958 7.536 79.3558 7.056 79.4038C6.576 79.4758 6.072 79.5118 5.544 79.5118C4.416 79.5118 3.624 79.3198 3.168 78.9358C2.736 78.5518 2.52 77.8558 2.52 76.8478V59.3878C2.52 58.9078 2.64 58.5358 2.88 58.2718C3.144 58.0078 3.516 57.8038 3.996 57.6598C4.38 57.5158 4.812 57.3958 5.292 57.2998C5.796 57.2038 6.3 57.1198 6.804 57.0478C7.332 56.9758 7.848 56.9278 8.352 56.9038C8.88 56.8798 9.372 56.8678 9.828 56.8678C13.092 56.8678 15.564 57.5638 17.244 58.9558C18.924 60.3238 19.764 62.2078 19.764 64.6078C19.764 65.7598 19.548 66.8158 19.116 67.7758C18.708 68.7118 18.108 69.5158 17.316 70.1878C16.524 70.8598 15.552 71.3758 14.4 71.7358C13.272 72.0958 11.988 72.2758 10.548 72.2758H8.172ZM10.188 67.8478C11.364 67.8478 12.3 67.5838 12.996 67.0558C13.692 66.5038 14.04 65.6878 14.04 64.6078C14.04 62.4718 12.768 61.4038 10.224 61.4038C9.792 61.4038 9.408 61.4158 9.072 61.4398C8.76 61.4638 8.448 61.4998 8.136 61.5478V67.8478H10.188ZM27.6334 79.2238C27.3934 79.2958 27.0574 79.3558 26.6254 79.4038C26.1934 79.4758 25.7134 79.5118 25.1854 79.5118C24.1054 79.5118 23.3254 79.3438 22.8454 79.0078C22.3654 78.6478 22.1254 77.9638 22.1254 76.9558V65.9758C22.1254 65.3038 22.2934 64.7278 22.6294 64.2478C22.9654 63.7678 23.4334 63.3478 24.0334 62.9878C24.8254 62.5078 25.7734 62.1358 26.8774 61.8718C28.0054 61.5838 29.1814 61.4398 30.4054 61.4398C32.9014 61.4398 34.1494 62.2798 34.1494 63.9598C34.1494 64.3678 34.0894 64.7398 33.9694 65.0758C33.8494 65.4118 33.7174 65.6998 33.5734 65.9398C33.0214 65.8198 32.3494 65.7598 31.5574 65.7598C30.8614 65.7598 30.1654 65.8438 29.4694 66.0118C28.7734 66.1798 28.1614 66.4078 27.6334 66.6958V79.2238ZM42.3672 79.2238C42.1272 79.2958 41.7912 79.3558 41.3592 79.4038C40.9272 79.4758 40.4472 79.5118 39.9192 79.5118C38.8392 79.5118 38.0592 79.3438 37.5792 79.0078C37.1232 78.6478 36.8952 77.9638 36.8952 76.9558V62.1598C37.1352 62.0878 37.4712 62.0158 37.9032 61.9438C38.3352 61.8718 38.8152 61.8358 39.3432 61.8358C40.4232 61.8358 41.1912 62.0158 41.6472 62.3758C42.1272 62.7358 42.3672 63.4198 42.3672 64.4278V79.2238ZM36.5712 56.9758C36.5712 56.1598 36.8472 55.4638 37.3992 54.8878C37.9752 54.3118 38.7192 54.0238 39.6312 54.0238C40.5432 54.0238 41.2752 54.3118 41.8272 54.8878C42.4032 55.4638 42.6912 56.1598 42.6912 56.9758C42.6912 57.8158 42.4032 58.5238 41.8272 59.0998C41.2752 59.6758 40.5432 59.9638 39.6312 59.9638C38.7192 59.9638 37.9752 59.6758 37.3992 59.0998C36.8472 58.5238 36.5712 57.8158 36.5712 56.9758ZM46.9901 79.2598C46.6541 78.9478 46.3781 78.5878 46.1621 78.1798C45.9701 77.7718 45.8741 77.3158 45.8741 76.8118C45.8741 76.3558 45.9701 75.9238 46.1621 75.5158C46.3781 75.0838 46.6421 74.6758 46.9541 74.2918L53.7221 66.2278H46.5941C46.4741 65.9878 46.3421 65.6878 46.1981 65.3278C46.0781 64.9438 46.0181 64.5358 46.0181 64.1038C46.0181 63.3358 46.1861 62.7838 46.5221 62.4478C46.8821 62.1118 47.3381 61.9438 47.8901 61.9438H59.2661C59.6021 62.2558 59.8781 62.6158 60.0941 63.0238C60.3101 63.4318 60.4181 63.8998 60.4181 64.4278C60.4181 64.8598 60.3101 65.2918 60.0941 65.7238C59.9021 66.1318 59.6501 66.5278 59.3381 66.9118L52.6781 75.0118H60.2381C60.3821 75.2278 60.5141 75.5278 60.6341 75.9118C60.7541 76.2958 60.8141 76.6918 60.8141 77.0998C60.8141 77.8678 60.6341 78.4198 60.2741 78.7558C59.9381 79.0918 59.4941 79.2598 58.9421 79.2598H46.9901ZM68.1491 72.8878C68.4851 73.8958 69.0731 74.6158 69.9131 75.0478C70.7531 75.4558 71.7251 75.6598 72.8291 75.6598C73.8371 75.6598 74.7851 75.5278 75.6731 75.2638C76.5611 74.9758 77.2811 74.6638 77.8331 74.3278C78.1931 74.5678 78.4931 74.8798 78.7331 75.2638C78.9731 75.6478 79.0931 76.0678 79.0931 76.5238C79.0931 77.0758 78.9251 77.5558 78.5891 77.9638C78.2531 78.3718 77.7851 78.7198 77.1851 79.0078C76.6091 79.2718 75.9131 79.4638 75.0971 79.5838C74.3051 79.7278 73.4291 79.7998 72.4691 79.7998C71.0531 79.7998 69.7451 79.6078 68.5451 79.2238C67.3451 78.8158 66.3131 78.2278 65.4491 77.4598C64.5851 76.6678 63.9011 75.6838 63.3971 74.5078C62.9171 73.3318 62.6771 71.9518 62.6771 70.3678C62.6771 68.8318 62.9171 67.4998 63.3971 66.3718C63.9011 65.2438 64.5611 64.3078 65.3771 63.5638C66.2171 62.8198 67.1651 62.2798 68.2211 61.9438C69.3011 61.5838 70.4051 61.4038 71.5331 61.4038C72.7571 61.4038 73.8731 61.5958 74.8811 61.9798C75.9131 62.3398 76.7891 62.8558 77.5091 63.5278C78.2531 64.1998 78.8291 65.0038 79.2371 65.9398C79.6451 66.8758 79.8491 67.8958 79.8491 68.9998C79.8491 69.7678 79.6451 70.3438 79.2371 70.7278C78.8291 71.1118 78.2531 71.3638 77.5091 71.4838L68.1491 72.8878ZM71.5691 65.4718C70.5371 65.4718 69.6731 65.7958 68.9771 66.4438C68.3051 67.0678 67.9091 67.9798 67.7891 69.1798L74.6651 68.0638C74.6171 67.4398 74.3411 66.8518 73.8371 66.2998C73.3331 65.7478 72.5771 65.4718 71.5691 65.4718ZM88.524 79.2238C88.284 79.2958 87.948 79.3558 87.516 79.4038C87.084 79.4758 86.604 79.5118 86.076 79.5118C84.996 79.5118 84.216 79.3438 83.736 79.0078C83.256 78.6478 83.016 77.9638 83.016 76.9558V65.9758C83.016 65.3038 83.184 64.7278 83.52 64.2478C83.856 63.7678 84.324 63.3478 84.924 62.9878C85.716 62.5078 86.664 62.1358 87.768 61.8718C88.896 61.5838 90.072 61.4398 91.296 61.4398C93.792 61.4398 95.04 62.2798 95.04 63.9598C95.04 64.3678 94.98 64.7398 94.86 65.0758C94.74 65.4118 94.608 65.6998 94.464 65.9398C93.912 65.8198 93.24 65.7598 92.448 65.7598C91.752 65.7598 91.056 65.8438 90.36 66.0118C89.664 66.1798 89.052 66.4078 88.524 66.6958V79.2238Z" fill="url(#paint1_linear_154_13)"/>
<defs>
<radialGradient id="paint0_radial_154_13" cx="0" cy="0" r="1" gradientUnits="userSpaceOnUse" gradientTransform="translate(49 32.5003) rotate(90) scale(22.3441 25.1875)">
<stop stop-color="#4743EE"/>
<stop offset="1" stop-color="#47B9FF"/>
</radialGradient>
<linearGradient id="paint1_linear_154_13" x1="-7.81915" y1="69.8944" x2="162.086" y2="64.1924" gradientUnits="userSpaceOnUse">
<stop stop-color="#007AFF"/>
<stop offset="1" stop-color="#00D1FF"/>
</linearGradient>
</defs>
</svg>
