<svg width="299" height="173" viewBox="0 0 299 173" fill="none" xmlns="http://www.w3.org/2000/svg">
<path d="M60.568 118.742C59.6507 118.857 59.0487 118.685 58.762 118.226C58.4753 117.71 58.332 116.936 58.332 115.904C58.332 114.643 58.3607 113.496 58.418 112.464L58.504 105.24L58.676 95.092C59.02 82.9373 59.192 73.4487 59.192 66.626C59.192 64.562 59.1633 63.3293 59.106 62.928C58.9913 61.6667 58.934 60.9213 58.934 60.692C58.934 59.2013 59.2493 58.456 59.88 58.456C60.1667 58.456 60.74 58.4847 61.6 58.542C62.5173 58.5993 63.7787 58.628 65.384 58.628C65.8427 58.628 67.018 58.5993 68.91 58.542C70.802 58.4847 72.78 58.456 74.844 58.456C77.8827 58.456 80.778 58.542 83.53 58.714C87.486 58.9433 90.754 60.5487 93.334 63.53C95.9713 66.5113 97.29 70.9833 97.29 76.946C97.29 80.8447 96.4587 83.9407 94.796 86.234C93.1333 88.5273 91.2127 90.1327 89.034 91.05C86.8553 91.91 84.9347 92.34 83.272 92.34C81.724 92.34 79.1153 92.512 75.446 92.856C73.3247 93.0853 71.6047 93.2287 70.286 93.286C70.1713 98.5607 70.114 102.144 70.114 104.036C70.114 111.489 70.2 115.531 70.372 116.162C70.4867 116.735 70.372 117.251 70.028 117.71C69.7413 118.111 69.34 118.398 68.824 118.57C68.3653 118.685 67.9353 118.656 67.534 118.484C67.362 118.427 66.8747 118.398 66.072 118.398C64.352 118.398 62.5173 118.513 60.568 118.742ZM80.864 86.148C82.9853 86.148 84.9633 85.5173 86.798 84.256C88.6327 82.9947 89.55 80.73 89.55 77.462C89.55 73.9647 88.8333 71.3273 87.4 69.55C85.9667 67.7153 83.874 66.54 81.122 66.024C76.822 65.164 73.4393 64.82 70.974 64.992C70.974 66.5973 70.9453 67.8013 70.888 68.604C70.7733 71.8147 70.63 74.108 70.458 75.484C70.2287 77.4907 70.1713 79.7553 70.286 82.278L70.458 85.632L74.5 85.89C76.048 86.062 78.1693 86.148 80.864 86.148ZM104.646 119C103.786 119 103.356 118.656 103.356 117.968V101.542V94.318L103.958 69.894C103.958 69.2633 104.101 68.9193 104.388 68.862C104.617 68.7473 105.276 68.69 106.366 68.69C108.544 68.69 109.748 68.7473 109.978 68.862C110.15 68.862 110.293 68.9767 110.408 69.206C110.58 69.378 110.666 69.5213 110.666 69.636L110.58 72.646L114.364 71.098C120.04 68.6327 123.308 67.4 124.168 67.4H124.254C124.655 67.4 124.97 67.916 125.2 68.948C125.2 70.2093 125.228 71.184 125.286 71.872C125.286 72.5027 125.343 73.1047 125.458 73.678L125.544 75.57V75.742C125.544 75.9713 125.458 76.2007 125.286 76.43C125.114 76.6593 124.97 76.8027 124.856 76.86C123.021 77.3187 121.043 77.6913 118.922 77.978C116.858 78.2073 115.654 78.3507 115.31 78.408L110.408 79.096V91.222V95.006L110.58 99.478C110.58 101.141 110.551 102.545 110.494 103.692C110.322 105.584 110.236 107.763 110.236 110.228V113.152C110.236 116.019 110.121 117.796 109.892 118.484C109.892 118.885 109.433 119.086 108.516 119.086L104.646 119ZM131.914 119.688C131.456 119.688 131.169 119.631 131.054 119.516C130.94 119.459 130.882 119.287 130.882 119C130.882 118.828 130.882 118.57 130.882 118.226C130.94 117.825 130.968 117.309 130.968 116.678L131.054 107.304L131.226 92.34C131.226 90.7347 131.341 87.2947 131.57 82.02C131.8 76.1147 131.886 72.8753 131.828 72.302L131.742 70.84C131.742 70.2093 131.828 69.7507 132 69.464C132.172 69.12 132.488 68.948 132.946 68.948L136.558 69.034C137.074 69.034 137.332 69.3493 137.332 69.98C137.332 70.2667 137.304 70.5533 137.246 70.84C137.189 71.1267 137.16 71.4133 137.16 71.7C137.046 72.904 136.931 75.5413 136.816 79.612C136.816 80.9307 136.702 84.2847 136.472 89.674C136.415 91.4513 136.358 93.2 136.3 94.92C136.243 96.5827 136.214 98.0447 136.214 99.306C136.214 102.058 136.243 105.555 136.3 109.798C136.415 113.983 136.53 116.477 136.644 117.28C136.702 117.509 136.73 117.825 136.73 118.226C136.73 118.627 136.673 118.885 136.558 119C136.501 119.172 136.3 119.287 135.956 119.344C135.498 119.573 134.752 119.688 133.72 119.688C132.746 119.688 132.144 119.688 131.914 119.688ZM134.752 65.766C133.548 65.766 132.43 65.3073 131.398 64.39C130.424 63.4727 129.936 62.326 129.936 60.95C129.936 59.746 130.366 58.6853 131.226 57.768C132.144 56.7933 133.204 56.306 134.408 56.306C135.842 56.306 137.132 56.6787 138.278 57.424C139.425 58.1693 139.998 59.2013 139.998 60.52C139.998 62.1253 139.425 63.4153 138.278 64.39C137.132 65.3073 135.956 65.766 134.752 65.766ZM167.363 119.172C166.503 119.115 165.443 119.086 164.181 119.086H147.927C146.953 119.086 146.351 118.943 146.121 118.656C145.949 118.312 145.863 117.939 145.863 117.538C145.921 117.137 145.949 116.85 145.949 116.678L146.035 113.84L146.207 110.4C146.207 110.056 146.351 109.655 146.637 109.196C146.981 108.68 147.354 108.193 147.755 107.734L149.045 106.014C150.249 104.294 151.941 101.857 154.119 98.704C156.298 95.4933 157.674 93.372 158.247 92.34C158.878 91.136 160.655 88.4127 163.579 84.17L165.299 81.676C165.93 80.7013 166.733 79.1247 167.707 76.946L168.911 74.108C168.625 74.108 168.424 74.0793 168.309 74.022L166.933 73.936L159.967 73.85L155.839 73.936H154.721C154.32 73.8213 152.743 73.764 149.991 73.764H147.239C146.895 73.7067 146.666 73.6493 146.551 73.592C146.494 73.4773 146.465 73.3627 146.465 73.248C146.523 73.076 146.551 72.9327 146.551 72.818C146.551 72.3593 146.465 71.442 146.293 70.066V69.894C146.293 69.2633 146.609 68.948 147.239 68.948C148.673 68.948 149.848 68.9193 150.765 68.862L156.699 68.776L163.665 68.948L167.793 69.034H171.663C175.447 69.034 177.655 69.0053 178.285 68.948L178.801 68.862C179.203 68.862 179.432 68.948 179.489 69.12C179.604 69.292 179.661 69.5787 179.661 69.98C179.661 71.8147 179.461 73.0473 179.059 73.678L177.769 75.742C173.641 82.2207 171.033 86.2913 169.943 87.954C165.987 93.974 163.293 98.016 161.859 100.08L155.495 109.54C156.069 109.655 156.986 109.769 158.247 109.884C159.566 110.113 161.171 110.228 163.063 110.228L166.761 110.142C167.507 110.085 168.682 110.056 170.287 110.056C171.434 110.056 172.609 110.027 173.813 109.97C175.075 109.913 176.164 109.855 177.081 109.798L181.209 109.626C181.783 109.626 182.127 109.769 182.241 110.056C182.356 110.285 182.413 110.601 182.413 111.002C182.471 111.403 182.499 111.69 182.499 111.862L182.327 117.108V117.538C182.327 117.997 182.27 118.283 182.155 118.398C182.098 118.513 181.869 118.57 181.467 118.57C181.238 118.627 180.607 118.685 179.575 118.742C178.543 118.799 177.483 118.914 176.393 119.086C175.82 119.201 174.559 119.258 172.609 119.258L167.363 119.172ZM209.206 119.946C201.007 119.946 195.388 117.481 192.35 112.55C189.311 107.619 187.792 100.997 187.792 92.684C187.792 88.384 188.68 84.3133 190.458 80.472C192.292 76.5733 194.758 73.4487 197.854 71.098C201.007 68.7473 204.476 67.572 208.26 67.572C212.846 67.572 216.544 69.12 219.354 72.216C222.163 75.312 224.141 79.2393 225.288 83.998C226.492 88.6993 227.094 93.6587 227.094 98.876C227.151 99.2773 227.008 99.5353 226.664 99.65C226.32 99.7647 225.632 99.822 224.6 99.822C222.765 99.7073 221.274 99.65 220.128 99.65C218.236 99.65 215.742 99.7073 212.646 99.822L210.41 99.908H207.486C203.415 99.908 200.778 99.8793 199.574 99.822C196.822 99.822 194.815 99.7933 193.554 99.736C193.898 104.896 195.302 108.795 197.768 111.432C200.29 114.012 203.988 115.302 208.862 115.302C211.442 115.302 213.993 114.614 216.516 113.238C219.038 111.805 220.844 110.027 221.934 107.906C221.991 107.849 222.077 107.82 222.192 107.82C222.478 107.82 222.822 108.021 223.224 108.422C223.682 108.766 224.026 109.024 224.256 109.196C224.886 109.597 225.345 109.913 225.632 110.142C225.918 110.371 226.09 110.687 226.148 111.088C224.542 113.439 222.163 115.503 219.01 117.28C215.914 119.057 212.646 119.946 209.206 119.946ZM211.442 94.49C212.99 94.49 214.509 94.4613 216 94.404C217.548 94.2893 219.44 94.1173 221.676 93.888C221.045 88.04 219.698 82.9947 217.634 78.752C215.627 74.5093 213.018 72.388 209.808 72.388C207.056 72.388 204.476 73.3627 202.068 75.312C199.66 77.204 197.682 79.8127 196.134 83.138C194.586 86.4633 193.697 90.19 193.468 94.318C193.869 94.318 194.414 94.3467 195.102 94.404C195.79 94.404 196.764 94.3753 198.026 94.318L211.442 94.49ZM237.593 119C236.733 119 236.303 118.656 236.303 117.968V101.542V94.318L236.905 69.894C236.905 69.2633 237.048 68.9193 237.335 68.862C237.564 68.7473 238.224 68.69 239.313 68.69C241.492 68.69 242.696 68.7473 242.925 68.862C243.097 68.862 243.24 68.9767 243.355 69.206C243.527 69.378 243.613 69.5213 243.613 69.636L243.527 72.646L247.311 71.098C252.987 68.6327 256.255 67.4 257.115 67.4H257.201C257.602 67.4 257.918 67.916 258.147 68.948C258.147 70.2093 258.176 71.184 258.233 71.872C258.233 72.5027 258.29 73.1047 258.405 73.678L258.491 75.57V75.742C258.491 75.9713 258.405 76.2007 258.233 76.43C258.061 76.6593 257.918 76.8027 257.803 76.86C255.968 77.3187 253.99 77.6913 251.869 77.978C249.805 78.2073 248.601 78.3507 248.257 78.408L243.355 79.096V91.222V95.006L243.527 99.478C243.527 101.141 243.498 102.545 243.441 103.692C243.269 105.584 243.183 107.763 243.183 110.228V113.152C243.183 116.019 243.068 117.796 242.839 118.484C242.839 118.885 242.38 119.086 241.463 119.086L237.593 119Z" fill="#6DE4CF"/>
<path d="M5.5 93.5L154 3.5L293.5 93.5L154 170L5.5 93.5Z" stroke="#6CE4CF" stroke-width="5"/>
</svg>
