<svg width="100" height="100" viewBox="0 0 100 100" fill="none" xmlns="http://www.w3.org/2000/svg">
<circle cx="50" cy="50" r="50" fill="#F8F8F8"/>
<path d="M8.97786 42.444V36.72H18.9499V63H12.5419V42.444H8.97786ZM23.161 49.5C23.161 45.372 23.953 42.12 25.537 39.744C27.145 37.368 29.725 36.18 33.277 36.18C36.829 36.18 39.397 37.368 40.981 39.744C42.589 42.12 43.393 45.372 43.393 49.5C43.393 53.676 42.589 56.952 40.981 59.328C39.397 61.704 36.829 62.892 33.277 62.892C29.725 62.892 27.145 61.704 25.537 59.328C23.953 56.952 23.161 53.676 23.161 49.5ZM37.345 49.5C37.345 47.076 37.081 45.216 36.553 43.92C36.025 42.6 34.933 41.94 33.277 41.94C31.621 41.94 30.529 42.6 30.001 43.92C29.473 45.216 29.209 47.076 29.209 49.5C29.209 51.132 29.305 52.488 29.497 53.568C29.689 54.624 30.073 55.488 30.649 56.16C31.249 56.808 32.125 57.132 33.277 57.132C34.429 57.132 35.293 56.808 35.869 56.16C36.469 55.488 36.865 54.624 37.057 53.568C37.249 52.488 37.345 51.132 37.345 49.5ZM46.6454 49.5C46.6454 45.372 47.4374 42.12 49.0214 39.744C50.6294 37.368 53.2094 36.18 56.7614 36.18C60.3134 36.18 62.8814 37.368 64.4654 39.744C66.0734 42.12 66.8774 45.372 66.8774 49.5C66.8774 53.676 66.0734 56.952 64.4654 59.328C62.8814 61.704 60.3134 62.892 56.7614 62.892C53.2094 62.892 50.6294 61.704 49.0214 59.328C47.4374 56.952 46.6454 53.676 46.6454 49.5ZM60.8294 49.5C60.8294 47.076 60.5654 45.216 60.0374 43.92C59.5094 42.6 58.4174 41.94 56.7614 41.94C55.1054 41.94 54.0134 42.6 53.4854 43.92C52.9574 45.216 52.6934 47.076 52.6934 49.5C52.6934 51.132 52.7894 52.488 52.9814 53.568C53.1734 54.624 53.5574 55.488 54.1334 56.16C54.7334 56.808 55.6094 57.132 56.7614 57.132C57.9134 57.132 58.7774 56.808 59.3534 56.16C59.9534 55.488 60.3494 54.624 60.5414 53.568C60.7334 52.488 60.8294 51.132 60.8294 49.5ZM70.1298 49.5C70.1298 45.372 70.9218 42.12 72.5058 39.744C74.1138 37.368 76.6938 36.18 80.2458 36.18C83.7978 36.18 86.3658 37.368 87.9498 39.744C89.5578 42.12 90.3618 45.372 90.3618 49.5C90.3618 53.676 89.5578 56.952 87.9498 59.328C86.3658 61.704 83.7978 62.892 80.2458 62.892C76.6938 62.892 74.1138 61.704 72.5058 59.328C70.9218 56.952 70.1298 53.676 70.1298 49.5ZM84.3138 49.5C84.3138 47.076 84.0498 45.216 83.5218 43.92C82.9938 42.6 81.9018 41.94 80.2458 41.94C78.5898 41.94 77.4978 42.6 76.9698 43.92C76.4418 45.216 76.1778 47.076 76.1778 49.5C76.1778 51.132 76.2738 52.488 76.4658 53.568C76.6578 54.624 77.0418 55.488 77.6178 56.16C78.2178 56.808 79.0938 57.132 80.2458 57.132C81.3978 57.132 82.2618 56.808 82.8378 56.16C83.4378 55.488 83.8338 54.624 84.0258 53.568C84.2178 52.488 84.3138 51.132 84.3138 49.5Z" fill="url(#paint0_linear_397_153)"/>
<defs>
<linearGradient id="paint0_linear_397_153" x1="-4.5" y1="52.9792" x2="158.462" y2="47.3991" gradientUnits="userSpaceOnUse">
<stop stop-color="#007AFF"/>
<stop offset="1" stop-color="#9E00FF"/>
</linearGradient>
</defs>
</svg>
