<svg width="100" height="100" viewBox="0 0 100 100" fill="none" xmlns="http://www.w3.org/2000/svg">
<circle cx="50" cy="50" r="50" fill="#F8F8F8"/>
<path d="M50 37.25H75.3087M40.0833 76.5483L57.9957 59.9167M24.5 37.6353L39.9062 57.8653M50 37.25C53.3815 37.25 56.6245 38.5933 59.0156 40.9844C61.4067 43.3755 62.75 46.6185 62.75 50C62.75 53.3815 61.4067 56.6245 59.0156 59.0156C56.6245 61.4067 53.3815 62.75 50 62.75C46.6185 62.75 43.3755 61.4067 40.9844 59.0156C38.5933 56.6245 37.25 53.3815 37.25 50C37.25 46.6185 38.5933 43.3755 40.9844 40.9844C43.3755 38.5933 46.6185 37.25 50 37.25V37.25ZM50 78.3333C65.6485 78.3333 78.3333 65.6485 78.3333 50C78.3333 34.3515 65.6485 21.6667 50 21.6667C34.3515 21.6667 21.6667 34.3515 21.6667 50C21.6667 65.6485 34.3515 78.3333 50 78.3333Z" stroke="url(#paint0_linear_397_154)" stroke-width="4" stroke-linecap="round" stroke-linejoin="round"/>
<defs>
<linearGradient id="paint0_linear_397_154" x1="17.1454" y1="55.9028" x2="115.476" y2="54.3626" gradientUnits="userSpaceOnUse">
<stop stop-color="#007AFF"/>
<stop offset="1" stop-color="#9E00FF"/>
</linearGradient>
</defs>
</svg>
