<svg width="160" height="160" viewBox="0 0 160 160" fill="none" xmlns="http://www.w3.org/2000/svg">
<g filter="url(#filter0_d_20_61)">
<g filter="url(#filter1_d_20_61)">
<circle cx="80" cy="78" r="50" fill="white"/>
</g>
<path d="M82.9189 94.1578H76.762C76.4935 94.1579 76.2277 94.1036 75.9807 93.9983C75.7337 93.8929 75.5106 93.7386 75.3249 93.5447C75.1392 93.3507 74.9946 93.1212 74.9 92.8699C74.8053 92.6186 74.7625 92.3508 74.7742 92.0825V87.9417C74.7742 87.8052 74.8284 87.6743 74.925 87.5778C75.0215 87.4812 75.1524 87.427 75.2889 87.427C75.4254 87.427 75.5563 87.4812 75.6529 87.5778C75.7494 87.6743 75.8036 87.8052 75.8036 87.9417V92.0825C75.7926 92.2153 75.8091 92.349 75.8521 92.4752C75.8952 92.6013 75.9639 92.7172 76.0539 92.8155C76.1439 92.9138 76.2533 92.9924 76.3751 93.0465C76.497 93.1005 76.6287 93.1287 76.762 93.1294H82.9189C83.2223 93.1377 83.5185 93.0365 83.7534 92.8442C83.9883 92.652 84.1461 92.3816 84.1979 92.0825V87.9417C84.1979 87.8052 84.2522 87.6743 84.3487 87.5778C84.4452 87.4812 84.5761 87.427 84.7126 87.427C84.8491 87.427 84.9801 87.4812 85.0766 87.5778C85.1731 87.6743 85.2273 87.8052 85.2273 87.9417V92.0825C85.1804 92.6578 84.9151 93.1934 84.4859 93.5793C84.0566 93.9652 83.4959 94.1722 82.9189 94.1578Z" fill="#2D74FF"/>
<path d="M84.2762 88.4564H75.7259C75.4843 88.455 75.2509 88.369 75.0662 88.2134C74.8814 88.0577 74.757 87.8423 74.7145 87.6045C74.283 85.5821 73.3037 83.7173 71.8836 82.214C70.5199 80.6547 69.6342 78.7356 69.3323 76.6861C69.0305 74.6367 69.3253 72.5437 70.1815 70.6574C71.0378 68.771 72.4192 67.1713 74.1606 66.0493C75.902 64.9273 77.9297 64.3307 80.0013 64.3307C82.0728 64.3307 84.1006 64.9273 85.842 66.0493C87.5834 67.1713 88.9648 68.771 89.821 70.6574C90.6773 72.5437 90.9721 74.6367 90.6703 76.6861C90.3684 78.7356 89.4827 80.6547 88.1189 82.214C86.6984 83.7172 85.7185 85.582 85.2865 87.6045C85.2441 87.8422 85.1198 88.0574 84.9353 88.213C84.7507 88.3686 84.5175 88.4547 84.2762 88.4564ZM79.9943 65.3647C78.1216 65.3653 76.2886 65.9052 74.7146 66.9199C73.1405 67.9345 71.892 69.381 71.1182 71.0864C70.3444 72.7918 70.0781 74.684 70.3511 76.5368C70.6241 78.3895 71.4249 80.1244 72.6578 81.5341C74.2018 83.1762 75.2637 85.2118 75.7269 87.4177L84.271 87.427C84.736 85.2181 85.7995 83.1796 87.3453 81.5346C88.5426 80.1657 89.3332 78.4892 89.6278 76.6946C89.9223 74.8999 89.7091 73.0587 89.0122 71.3788C88.3152 69.699 87.1624 68.2476 85.6839 67.1886C84.2054 66.1295 82.4602 65.5051 80.6454 65.3858C80.4279 65.3721 80.2109 65.3651 79.9943 65.3647Z" fill="#2D74FF"/>
<path d="M80.0005 96.0313C79.3798 96.0303 78.7848 95.7832 78.346 95.3442C77.9071 94.9052 77.6603 94.3101 77.6596 93.6894C77.6581 93.5481 77.7105 93.4116 77.8061 93.3076C77.9018 93.2037 78.0335 93.1401 78.1743 93.1299H81.8287C81.9652 93.1299 82.0962 93.1841 82.1927 93.2806C82.2892 93.3772 82.3434 93.5081 82.3434 93.6446C82.3477 93.9555 82.2904 94.2642 82.1747 94.5529C82.059 94.8415 81.8873 95.1044 81.6694 95.3263C81.4516 95.5482 81.192 95.7247 80.9055 95.8457C80.6191 95.9667 80.3115 96.0298 80.0005 96.0313ZM78.776 94.1593C78.8711 94.4071 79.039 94.6203 79.2577 94.7706C79.4764 94.921 79.7356 95.0015 80.001 95.0015C80.2664 95.0015 80.5256 94.921 80.7443 94.7706C80.963 94.6203 81.131 94.4071 81.226 94.1593H78.776Z" fill="#2D74FF"/>
<path d="M74.5807 90.7231C74.4486 90.7231 74.3216 90.6724 74.2259 90.5814C74.1302 90.4904 74.0732 90.3661 74.0666 90.2342C74.06 90.1023 74.1043 89.9729 74.1904 89.8728C74.2765 89.7727 74.3978 89.7095 74.5292 89.6963L85.2901 88.5938C85.3585 88.5848 85.4279 88.5896 85.4944 88.6079C85.5609 88.6262 85.6229 88.6577 85.677 88.7005C85.7311 88.7433 85.776 88.7965 85.8091 88.857C85.8422 88.9175 85.8628 88.984 85.8697 89.0526C85.8766 89.1212 85.8696 89.1904 85.8492 89.2563C85.8288 89.3222 85.7954 89.3832 85.751 89.4359C85.7065 89.4886 85.6519 89.5319 85.5904 89.5631C85.529 89.5943 85.4618 89.6128 85.3931 89.6175L74.6322 90.72C74.6151 90.722 74.5979 90.7231 74.5807 90.7231Z" fill="#2D74FF"/>
<path d="M74.6599 92.8381C74.5234 92.8449 74.3898 92.7972 74.2885 92.7055C74.1871 92.6138 74.1263 92.4856 74.1195 92.3491C74.1127 92.2126 74.1604 92.079 74.2521 91.9776C74.3438 91.8763 74.472 91.8155 74.6085 91.8087L85.2901 90.7144C85.3585 90.7054 85.4279 90.7102 85.4944 90.7285C85.5608 90.7468 85.6229 90.7783 85.677 90.8211C85.7311 90.8639 85.776 90.9171 85.8091 90.9776C85.8422 91.0381 85.8628 91.1046 85.8697 91.1732C85.8766 91.2418 85.8696 91.311 85.8492 91.3769C85.8288 91.4428 85.7954 91.5038 85.751 91.5565C85.7065 91.6092 85.6519 91.6525 85.5904 91.6837C85.529 91.7149 85.4618 91.7334 85.3931 91.7381L74.7124 92.8355C74.695 92.8374 74.6775 92.8382 74.6599 92.8381Z" fill="#2D74FF"/>
<path d="M79.9604 63.1397C79.8239 63.1397 79.6929 63.0855 79.5964 62.9889C79.4999 62.8924 79.4457 62.7615 79.4457 62.625V60.5147C79.4457 60.3782 79.4999 60.2473 79.5964 60.1508C79.6929 60.0542 79.8239 60 79.9604 60C80.0969 60 80.2278 60.0542 80.3243 60.1508C80.4208 60.2473 80.4751 60.3782 80.4751 60.5147V62.625C80.4751 62.7615 80.4208 62.8924 80.3243 62.9889C80.2278 63.0855 80.0969 63.1397 79.9604 63.1397Z" fill="#2D74FF"/>
<path d="M73.7783 64.8182C73.6877 64.8184 73.5988 64.7947 73.5203 64.7495C73.4419 64.7043 73.3768 64.6392 73.3315 64.5608L72.2779 62.7347C72.2107 62.6165 72.193 62.4766 72.2286 62.3454C72.2642 62.2143 72.3503 62.1025 72.468 62.0345C72.5857 61.9666 72.7255 61.9479 72.8569 61.9827C72.9883 62.0174 73.1006 62.1027 73.1694 62.22L74.2235 64.0461C74.2686 64.1243 74.2924 64.2131 74.2924 64.3034C74.2925 64.3937 74.2687 64.4824 74.2236 64.5606C74.1785 64.6388 74.1136 64.7038 74.0354 64.749C73.9573 64.7943 73.8686 64.8181 73.7783 64.8182Z" fill="#2D74FF"/>
<path d="M69.2617 69.3629C69.1714 69.3631 69.0826 69.3393 69.0044 69.2939L67.1793 68.2393C67.1186 68.2067 67.0651 68.1622 67.0219 68.1084C66.9788 68.0547 66.9468 67.9929 66.928 67.9266C66.9092 67.8604 66.9039 67.791 66.9124 67.7226C66.9209 67.6542 66.943 67.5883 66.9775 67.5286C67.012 67.4689 67.058 67.4168 67.113 67.3753C67.168 67.3338 67.2308 67.3037 67.2976 67.2869C67.3644 67.2701 67.4339 67.2669 67.502 67.2774C67.5701 67.288 67.6354 67.3121 67.694 67.3484L69.5196 68.4025C69.6177 68.4591 69.6944 68.5466 69.7378 68.6512C69.7811 68.7559 69.7887 68.872 69.7594 68.9814C69.7301 69.0909 69.6655 69.1876 69.5756 69.2565C69.4857 69.3255 69.3756 69.3629 69.2623 69.3629H69.2617Z" fill="#2D74FF"/>
<path d="M67.625 75.5564H65.5147C65.3782 75.5564 65.2473 75.5022 65.1508 75.4056C65.0542 75.3091 65 75.1782 65 75.0417C65 74.9052 65.0542 74.7743 65.1508 74.6777C65.2473 74.5812 65.3782 74.527 65.5147 74.527H67.625C67.7615 74.527 67.8924 74.5812 67.9889 74.6777C68.0855 74.7743 68.1397 74.9052 68.1397 75.0417C68.1397 75.1782 68.0855 75.3091 67.9889 75.4056C67.8924 75.5022 67.7615 75.5564 67.625 75.5564Z" fill="#2D74FF"/>
<path d="M67.4778 82.7931C67.3645 82.7931 67.2543 82.7557 67.1645 82.6867C67.0746 82.6177 67.01 82.521 66.9806 82.4116C66.9513 82.3021 66.9589 82.1861 67.0023 82.0814C67.0456 81.9767 67.1223 81.8893 67.2204 81.8326L69.0466 80.7785C69.1052 80.7447 69.1698 80.7228 69.2369 80.714C69.3039 80.7052 69.372 80.7097 69.4373 80.7272C69.5026 80.7447 69.5639 80.7749 69.6175 80.8161C69.6711 80.8573 69.7161 80.9086 69.7499 80.9672C69.7837 81.0257 69.8057 81.0904 69.8145 81.1574C69.8233 81.2245 69.8188 81.2926 69.8013 81.3579C69.7838 81.4232 69.7536 81.4844 69.7124 81.5381C69.6712 81.5917 69.6199 81.6367 69.5613 81.6705L67.7351 82.7246C67.6568 82.7696 67.5681 82.7932 67.4778 82.7931Z" fill="#2D74FF"/>
<path d="M86.2238 64.8182C86.1335 64.8181 86.0448 64.7943 85.9666 64.749C85.8885 64.7038 85.8236 64.6388 85.7784 64.5606C85.7333 64.4824 85.7096 64.3937 85.7096 64.3034C85.7096 64.2131 85.7334 64.1243 85.7786 64.0461L86.8306 62.22C86.8994 62.1027 87.0117 62.0174 87.1431 61.9827C87.2745 61.9479 87.4143 61.9666 87.532 62.0345C87.6497 62.1025 87.7358 62.2143 87.7714 62.3454C87.807 62.4766 87.7893 62.6165 87.7221 62.7347L86.668 64.5608C86.6229 64.6389 86.5582 64.7037 86.4803 64.7488C86.4023 64.794 86.3139 64.8179 86.2238 64.8182Z" fill="#2D74FF"/>
<path d="M90.7424 69.3629C90.6291 69.3629 90.5189 69.3255 90.4291 69.2565C90.3392 69.1876 90.2746 69.0909 90.2452 68.9814C90.2159 68.872 90.2235 68.7559 90.2669 68.6512C90.3102 68.5466 90.3869 68.4591 90.485 68.4025L92.3107 67.3484C92.3693 67.3121 92.4345 67.288 92.5026 67.2774C92.5707 67.2669 92.6402 67.2701 92.707 67.2869C92.7739 67.3037 92.8366 67.3338 92.8916 67.3753C92.9466 67.4168 92.9927 67.4689 93.0271 67.5286C93.0616 67.5883 93.0837 67.6542 93.0922 67.7226C93.1007 67.791 93.0954 67.8604 93.0766 67.9266C93.0578 67.9929 93.0259 68.0547 92.9827 68.1084C92.9395 68.1622 92.886 68.2067 92.8254 68.2393L90.9997 69.2939C90.9216 69.3393 90.8327 69.3631 90.7424 69.3629Z" fill="#2D74FF"/>
<path d="M94.4853 75.5564H92.375C92.2385 75.5564 92.1076 75.5022 92.0111 75.4056C91.9145 75.3091 91.8603 75.1782 91.8603 75.0417C91.8603 74.9052 91.9145 74.7743 92.0111 74.6777C92.1076 74.5812 92.2385 74.527 92.375 74.527H94.4853C94.6218 74.527 94.7527 74.5812 94.8492 74.6777C94.9458 74.7743 95 74.9052 95 75.0417C95 75.1782 94.9458 75.3091 94.8492 75.4056C94.7527 75.5022 94.6218 75.5564 94.4853 75.5564Z" fill="#2D74FF"/>
<path d="M92.5243 82.7931C92.434 82.7931 92.3453 82.7695 92.2669 82.7246L90.4418 81.6705C90.3832 81.6367 90.3319 81.5917 90.2907 81.5381C90.2495 81.4844 90.2193 81.4232 90.2018 81.3579C90.1843 81.2926 90.1798 81.2245 90.1886 81.1574C90.1974 81.0904 90.2193 81.0257 90.2531 80.9672C90.2869 80.9086 90.3319 80.8573 90.3856 80.8161C90.4392 80.7749 90.5004 80.7447 90.5657 80.7272C90.6311 80.7097 90.6992 80.7052 90.7662 80.714C90.8333 80.7228 90.8979 80.7447 90.9565 80.7785L92.7816 81.8326C92.8797 81.8893 92.9564 81.9767 92.9998 82.0814C93.0431 82.1861 93.0507 82.3021 93.0214 82.4116C92.9921 82.521 92.9275 82.6177 92.8376 82.6867C92.7477 82.7557 92.6376 82.7931 92.5243 82.7931Z" fill="#2D74FF"/>
<path d="M77.7827 88.4564C77.6665 88.4563 77.5539 88.4169 77.463 88.3447C77.372 88.2724 77.3082 88.1716 77.2819 88.0585L74.7866 77.3522C74.7655 77.2616 74.7694 77.167 74.7978 77.0785C74.8261 76.9899 74.878 76.9107 74.9478 76.8493C75.0175 76.7878 75.1027 76.7464 75.1941 76.7295C75.2855 76.7126 75.3798 76.7207 75.467 76.7531L77.7996 77.6193L79.7344 76.4499C79.8148 76.4013 79.9069 76.3756 80.0008 76.3756C80.0947 76.3756 80.1868 76.4013 80.2671 76.4499L82.2024 77.6193L84.533 76.7531C84.6202 76.7207 84.7145 76.7126 84.8059 76.7295C84.8973 76.7464 84.9825 76.7878 85.0522 76.8493C85.122 76.9107 85.1739 76.9899 85.2022 77.0785C85.2306 77.167 85.2345 77.2616 85.2134 77.3522L82.7202 88.058C82.6892 88.191 82.6067 88.3062 82.4908 88.3783C82.3748 88.4504 82.235 88.4735 82.102 88.4425C81.9691 88.4115 81.8539 88.329 81.7818 88.213C81.7097 88.0971 81.6866 87.9573 81.7176 87.8243L83.9936 78.0506L82.328 78.6683C82.2553 78.695 82.1775 78.7051 82.1003 78.6978C82.0232 78.6905 81.9487 78.666 81.8823 78.6261L80.0005 77.4922L78.1198 78.6286C78.0535 78.6688 77.9789 78.6934 77.9018 78.7007C77.8246 78.708 77.7467 78.6978 77.6741 78.6708L76.008 78.0532L78.2866 87.8248C78.3174 87.9578 78.2941 88.0976 78.2219 88.2134C78.1498 88.3292 78.0345 88.4116 77.9016 88.4425C77.8626 88.4515 77.8227 88.4562 77.7827 88.4564Z" fill="#2D74FF"/>
</g>
<defs>
<filter id="filter0_d_20_61" x="5" y="7" width="150" height="150" filterUnits="userSpaceOnUse" color-interpolation-filters="sRGB">
<feFlood flood-opacity="0" result="BackgroundImageFix"/>
<feColorMatrix in="SourceAlpha" type="matrix" values="0 0 0 0 0 0 0 0 0 0 0 0 0 0 0 0 0 0 127 0" result="hardAlpha"/>
<feOffset dy="4"/>
<feGaussianBlur stdDeviation="12.5"/>
<feColorMatrix type="matrix" values="0 0 0 0 0 0 0 0 0 0 0 0 0 0 0 0 0 0 0.1 0"/>
<feBlend mode="normal" in2="BackgroundImageFix" result="effect1_dropShadow_20_61"/>
<feBlend mode="normal" in="SourceGraphic" in2="effect1_dropShadow_20_61" result="shape"/>
</filter>
<filter id="filter1_d_20_61" x="0" y="0" width="160" height="160" filterUnits="userSpaceOnUse" color-interpolation-filters="sRGB">
<feFlood flood-opacity="0" result="BackgroundImageFix"/>
<feColorMatrix in="SourceAlpha" type="matrix" values="0 0 0 0 0 0 0 0 0 0 0 0 0 0 0 0 0 0 127 0" result="hardAlpha"/>
<feOffset dy="2"/>
<feGaussianBlur stdDeviation="15"/>
<feColorMatrix type="matrix" values="0 0 0 0 0 0 0 0 0 0 0 0 0 0 0 0 0 0 0.02 0"/>
<feBlend mode="normal" in2="BackgroundImageFix" result="effect1_dropShadow_20_61"/>
<feBlend mode="normal" in="SourceGraphic" in2="effect1_dropShadow_20_61" result="shape"/>
</filter>
</defs>
</svg>
