<svg width="52" height="52" viewBox="0 0 52 52" fill="none" xmlns="http://www.w3.org/2000/svg">
<path d="M31.8191 24.9437L13.832 21.775V45.1896C13.8322 45.444 13.8825 45.6958 13.9801 45.9308C14.0776 46.1657 14.2205 46.3791 14.4005 46.5588C14.5805 46.7385 14.7942 46.881 15.0292 46.9782C15.2643 47.0753 15.5163 47.1252 15.7706 47.125H46.8081C47.0628 47.1256 47.315 47.0761 47.5505 46.9791C47.786 46.8822 48 46.7397 48.1804 46.56C48.3607 46.3802 48.5039 46.1666 48.6016 45.9315C48.6994 45.6964 48.7498 45.4443 48.75 45.1896V36.5625L31.8191 24.9437Z" fill="#185C37"/>
<path d="M31.8191 4.875H15.7706C15.5163 4.87479 15.2643 4.92468 15.0292 5.02182C14.7942 5.11897 14.5805 5.26147 14.4005 5.44119C14.2205 5.6209 14.0776 5.83432 13.9801 6.06924C13.8825 6.30417 13.8322 6.55601 13.832 6.81038V15.4375L31.8191 26L41.3433 29.1688L48.75 26V15.4375L31.8191 4.875Z" fill="#21A366"/>
<path d="M13.832 15.4375H31.8191V26H13.832V15.4375Z" fill="#107C41"/>
<path opacity="0.1" d="M26.7053 13.325H13.832V39.7312H26.7053C27.2182 39.7287 27.7095 39.5241 28.0727 39.1619C28.4359 38.7996 28.6417 38.3088 28.6455 37.7959V15.2604C28.6417 14.7474 28.4359 14.2566 28.0727 13.8944C27.7095 13.5321 27.2182 13.3275 26.7053 13.325Z" fill="black"/>
<path opacity="0.2" d="M25.6474 14.3813H13.832V40.7875H25.6474C26.1603 40.785 26.6516 40.5804 27.0148 40.2181C27.378 39.8559 27.5838 39.3651 27.5876 38.8521V16.3166C27.5838 15.8037 27.378 15.3129 27.0148 14.9506C26.6516 14.5884 26.1603 14.3838 25.6474 14.3813Z" fill="black"/>
<path opacity="0.2" d="M25.6474 14.3813H13.832V38.675H25.6474C26.1603 38.6725 26.6516 38.4679 27.0148 38.1056C27.378 37.7434 27.5838 37.2526 27.5876 36.7396V16.3166C27.5838 15.8037 27.378 15.3129 27.0148 14.9506C26.6516 14.5884 26.1603 14.3838 25.6474 14.3813Z" fill="black"/>
<path opacity="0.2" d="M24.5895 14.3813H13.832V38.675H24.5895C25.1025 38.6725 25.5938 38.4679 25.9569 38.1056C26.3201 37.7434 26.5259 37.2526 26.5298 36.7396V16.3166C26.5259 15.8037 26.3201 15.3129 25.9569 14.9506C25.5938 14.5884 25.1025 14.3838 24.5895 14.3813Z" fill="black"/>
<path d="M5.19025 14.3812H24.5895C25.1034 14.3808 25.5964 14.5844 25.9602 14.9473C26.324 15.3102 26.5289 15.8027 26.5298 16.3166V35.6834C26.5289 36.1972 26.324 36.6898 25.9602 37.0527C25.5964 37.4156 25.1034 37.6192 24.5895 37.6187H5.19025C4.93574 37.6192 4.68365 37.5694 4.44837 37.4724C4.21309 37.3753 3.99925 37.2329 3.81906 37.0531C3.63887 36.8734 3.49586 36.6599 3.39822 36.4249C3.30058 36.1898 3.25021 35.9379 3.25 35.6834V16.3166C3.25021 16.0621 3.30058 15.8101 3.39822 15.5751C3.49586 15.3401 3.63887 15.1266 3.81906 14.9469C3.99925 14.7671 4.21309 14.6246 4.44837 14.5276C4.68365 14.4305 4.93574 14.3808 5.19025 14.3812Z" fill="url(#paint0_linear_358_270)"/>
<path d="M9.2625 32.2936L13.3429 25.9821L9.60537 19.7064H12.6067L14.6461 23.725C14.8346 24.1053 14.9711 24.388 15.0329 24.5765H15.0605C15.1937 24.271 15.3351 23.9769 15.483 23.6893L17.6637 19.7129H20.4262L16.5929 25.9529L20.5237 32.2985H17.5841L15.2279 27.8931C15.1185 27.7037 15.0255 27.5053 14.95 27.3H14.911C14.8423 27.5 14.7507 27.6914 14.638 27.8704L12.2119 32.2936H9.2625Z" fill="white"/>
<path d="M46.8097 4.875H31.8191V15.4375H48.75V6.81038C48.7498 6.55587 48.6994 6.3039 48.6018 6.06887C48.5041 5.83384 48.3611 5.62035 48.1809 5.44061C48.0008 5.26087 47.7869 5.11841 47.5516 5.02136C47.3164 4.92431 47.0643 4.87458 46.8097 4.875Z" fill="#33C481"/>
<path d="M31.8191 26H48.75V36.5625H31.8191V26Z" fill="#107C41"/>
<defs>
<linearGradient id="paint0_linear_358_270" x1="7.30275" y1="12.8602" x2="22.477" y2="39.1397" gradientUnits="userSpaceOnUse">
<stop stop-color="#18884F"/>
<stop offset="0.5" stop-color="#117E43"/>
<stop offset="1" stop-color="#0B6631"/>
</linearGradient>
</defs>
</svg>
