<svg width="98" height="8" viewBox="0 0 98 8" fill="none" xmlns="http://www.w3.org/2000/svg">
<path d="M0.646446 4.35355C0.451187 4.15829 0.451187 3.84171 0.646446 3.64645L3.82843 0.464466C4.02369 0.269204 4.34027 0.269204 4.53554 0.464466C4.7308 0.659728 4.7308 0.976311 4.53554 1.17157L1.70711 4L4.53554 6.82843C4.7308 7.02369 4.7308 7.34027 4.53554 7.53553C4.34027 7.7308 4.02369 7.7308 3.82843 7.53553L0.646446 4.35355ZM96.9896 4.5C96.7134 4.5 96.4896 4.27614 96.4896 4C96.4896 3.72386 96.7134 3.5 96.9896 3.5V4.5ZM94.9688 3.5C95.2449 3.5 95.4688 3.72386 95.4688 4C95.4688 4.27614 95.2449 4.5 94.9688 4.5V3.5ZM92.9479 4.5C92.6718 4.5 92.4479 4.27614 92.4479 4C92.4479 3.72386 92.6718 3.5 92.9479 3.5V4.5ZM90.9271 3.5C91.2032 3.5 91.4271 3.72386 91.4271 4C91.4271 4.27614 91.2032 4.5 90.9271 4.5V3.5ZM88.9063 4.5C88.6301 4.5 88.4063 4.27614 88.4063 4C88.4063 3.72386 88.6301 3.5 88.9063 3.5V4.5ZM86.8854 3.5C87.1616 3.5 87.3854 3.72386 87.3854 4C87.3854 4.27614 87.1616 4.5 86.8854 4.5V3.5ZM84.8646 4.5C84.5884 4.5 84.3646 4.27614 84.3646 4C84.3646 3.72386 84.5884 3.5 84.8646 3.5V4.5ZM82.8438 3.5C83.1199 3.5 83.3438 3.72386 83.3438 4C83.3438 4.27614 83.1199 4.5 82.8438 4.5V3.5ZM80.8229 4.5C80.5468 4.5 80.3229 4.27614 80.3229 4C80.3229 3.72386 80.5468 3.5 80.8229 3.5V4.5ZM78.8021 3.5C79.0782 3.5 79.3021 3.72386 79.3021 4C79.3021 4.27614 79.0782 4.5 78.8021 4.5V3.5ZM76.7812 4.5C76.5051 4.5 76.2812 4.27614 76.2812 4C76.2812 3.72386 76.5051 3.5 76.7812 3.5V4.5ZM74.7604 3.5C75.0366 3.5 75.2604 3.72386 75.2604 4C75.2604 4.27614 75.0366 4.5 74.7604 4.5V3.5ZM72.7396 4.5C72.4634 4.5 72.2396 4.27614 72.2396 4C72.2396 3.72386 72.4634 3.5 72.7396 3.5V4.5ZM70.7187 3.5C70.9949 3.5 71.2187 3.72386 71.2187 4C71.2187 4.27614 70.9949 4.5 70.7187 4.5V3.5ZM68.6979 4.5C68.4218 4.5 68.1979 4.27614 68.1979 4C68.1979 3.72386 68.4218 3.5 68.6979 3.5V4.5ZM66.6771 3.5C66.9532 3.5 67.1771 3.72386 67.1771 4C67.1771 4.27614 66.9532 4.5 66.6771 4.5V3.5ZM64.6562 4.5C64.3801 4.5 64.1562 4.27614 64.1562 4C64.1562 3.72386 64.3801 3.5 64.6562 3.5V4.5ZM62.6354 3.5C62.9116 3.5 63.1354 3.72386 63.1354 4C63.1354 4.27614 62.9116 4.5 62.6354 4.5V3.5ZM60.6146 4.5C60.3384 4.5 60.1146 4.27614 60.1146 4C60.1146 3.72386 60.3384 3.5 60.6146 3.5V4.5ZM58.5938 3.5C58.8699 3.5 59.0938 3.72386 59.0938 4C59.0938 4.27614 58.8699 4.5 58.5938 4.5V3.5ZM56.5729 4.5C56.2968 4.5 56.0729 4.27614 56.0729 4C56.0729 3.72386 56.2968 3.5 56.5729 3.5V4.5ZM54.5521 3.5C54.8282 3.5 55.0521 3.72386 55.0521 4C55.0521 4.27614 54.8282 4.5 54.5521 4.5V3.5ZM52.5313 4.5C52.2551 4.5 52.0313 4.27614 52.0313 4C52.0313 3.72386 52.2551 3.5 52.5313 3.5V4.5ZM50.5104 3.5C50.7866 3.5 51.0104 3.72386 51.0104 4C51.0104 4.27614 50.7866 4.5 50.5104 4.5V3.5ZM48.4896 4.5C48.2134 4.5 47.9896 4.27614 47.9896 4C47.9896 3.72386 48.2134 3.5 48.4896 3.5V4.5ZM46.4688 3.5C46.7449 3.5 46.9688 3.72386 46.9688 4C46.9688 4.27614 46.7449 4.5 46.4688 4.5V3.5ZM44.4479 4.5C44.1718 4.5 43.9479 4.27614 43.9479 4C43.9479 3.72386 44.1718 3.5 44.4479 3.5V4.5ZM42.4271 3.5C42.7032 3.5 42.9271 3.72386 42.9271 4C42.9271 4.27614 42.7032 4.5 42.4271 4.5V3.5ZM40.4063 4.5C40.1301 4.5 39.9063 4.27614 39.9063 4C39.9063 3.72386 40.1301 3.5 40.4063 3.5V4.5ZM38.3854 3.5C38.6616 3.5 38.8854 3.72386 38.8854 4C38.8854 4.27614 38.6616 4.5 38.3854 4.5V3.5ZM36.3646 4.5C36.0885 4.5 35.8646 4.27614 35.8646 4C35.8646 3.72386 36.0885 3.5 36.3646 3.5V4.5ZM34.3438 3.5C34.6199 3.5 34.8438 3.72386 34.8438 4C34.8438 4.27614 34.6199 4.5 34.3438 4.5V3.5ZM32.3229 4.5C32.0468 4.5 31.8229 4.27614 31.8229 4C31.8229 3.72386 32.0468 3.5 32.3229 3.5V4.5ZM30.3021 3.5C30.5782 3.5 30.8021 3.72386 30.8021 4C30.8021 4.27614 30.5782 4.5 30.3021 4.5V3.5ZM28.2813 4.5C28.0051 4.5 27.7813 4.27614 27.7813 4C27.7813 3.72386 28.0051 3.5 28.2813 3.5V4.5ZM26.2604 3.5C26.5366 3.5 26.7604 3.72386 26.7604 4C26.7604 4.27614 26.5366 4.5 26.2604 4.5V3.5ZM24.2396 4.5C23.9634 4.5 23.7396 4.27614 23.7396 4C23.7396 3.72386 23.9634 3.5 24.2396 3.5V4.5ZM22.2188 3.5C22.4949 3.5 22.7188 3.72386 22.7188 4C22.7188 4.27614 22.4949 4.5 22.2188 4.5V3.5ZM20.1979 4.5C19.9218 4.5 19.6979 4.27614 19.6979 4C19.6979 3.72386 19.9218 3.5 20.1979 3.5V4.5ZM18.1771 3.5C18.4532 3.5 18.6771 3.72386 18.6771 4C18.6771 4.27614 18.4532 4.5 18.1771 4.5V3.5ZM16.1562 4.5C15.8801 4.5 15.6562 4.27614 15.6562 4C15.6562 3.72386 15.8801 3.5 16.1562 3.5V4.5ZM14.1354 3.5C14.4116 3.5 14.6354 3.72386 14.6354 4C14.6354 4.27614 14.4116 4.5 14.1354 4.5V3.5ZM12.1146 4.5C11.8384 4.5 11.6146 4.27614 11.6146 4C11.6146 3.72386 11.8384 3.5 12.1146 3.5V4.5ZM10.0937 3.5C10.3699 3.5 10.5937 3.72386 10.5937 4C10.5937 4.27614 10.3699 4.5 10.0937 4.5V3.5ZM8.0729 4.5C7.79676 4.5 7.5729 4.27614 7.5729 4C7.5729 3.72386 7.79676 3.5 8.0729 3.5V4.5ZM6.05206 3.5C6.32821 3.5 6.55206 3.72386 6.55206 4C6.55206 4.27614 6.32821 4.5 6.05206 4.5V3.5ZM4.03123 4.5C3.75508 4.5 3.53123 4.27614 3.53123 4C3.53123 3.72386 3.75508 3.5 4.03123 3.5V4.5ZM2.01039 3.5C2.28653 3.5 2.51039 3.72386 2.51039 4C2.51039 4.27614 2.28653 4.5 2.01039 4.5V3.5ZM98 4.5H96.9896V3.5H98V4.5ZM94.9688 4.5H92.9479V3.5H94.9688V4.5ZM90.9271 4.5H88.9063V3.5H90.9271V4.5ZM86.8854 4.5H84.8646V3.5H86.8854V4.5ZM82.8438 4.5H80.8229V3.5H82.8438V4.5ZM78.8021 4.5H76.7812V3.5H78.8021V4.5ZM74.7604 4.5H72.7396V3.5H74.7604V4.5ZM70.7187 4.5H68.6979V3.5H70.7187V4.5ZM66.6771 4.5H64.6562V3.5H66.6771V4.5ZM62.6354 4.5H60.6146V3.5H62.6354V4.5ZM58.5938 4.5H56.5729V3.5H58.5938V4.5ZM54.5521 4.5H52.5313V3.5H54.5521V4.5ZM50.5104 4.5H48.4896V3.5H50.5104V4.5ZM46.4688 4.5H44.4479V3.5H46.4688V4.5ZM42.4271 4.5H40.4063V3.5H42.4271V4.5ZM38.3854 4.5H36.3646V3.5H38.3854V4.5ZM34.3438 4.5H32.3229V3.5H34.3438V4.5ZM30.3021 4.5H28.2813V3.5H30.3021V4.5ZM26.2604 4.5H24.2396V3.5H26.2604V4.5ZM22.2188 4.5H20.1979V3.5H22.2188V4.5ZM18.1771 4.5H16.1562V3.5H18.1771V4.5ZM14.1354 4.5H12.1146V3.5H14.1354V4.5ZM10.0937 4.5H8.0729V3.5H10.0937V4.5ZM6.05206 4.5H4.03123V3.5H6.05206V4.5ZM2.01039 4.5H1V3.5H2.01039V4.5Z" fill="url(#paint0_linear_358_301)"/>
<defs>
<linearGradient id="paint0_linear_358_301" x1="105.739" y1="4.60417" x2="54.8526" y2="-72.7124" gradientUnits="userSpaceOnUse">
<stop stop-color="#007AFF"/>
<stop offset="1" stop-color="#9E00FF"/>
</linearGradient>
</defs>
</svg>
