<svg width="98" height="8" viewBox="0 0 98 8" fill="none" xmlns="http://www.w3.org/2000/svg">
<path d="M97.8536 4.35355C98.0488 4.15829 98.0488 3.84171 97.8536 3.64645L94.6716 0.464466C94.4763 0.269204 94.1597 0.269204 93.9645 0.464466C93.7692 0.659728 93.7692 0.976311 93.9645 1.17157L96.7929 4L93.9645 6.82843C93.7692 7.02369 93.7692 7.34027 93.9645 7.53553C94.1597 7.7308 94.4763 7.7308 94.6716 7.53553L97.8536 4.35355ZM1.51042 4.5C1.78656 4.5 2.01042 4.27614 2.01042 4C2.01042 3.72386 1.78656 3.5 1.51042 3.5V4.5ZM3.53125 3.5C3.25511 3.5 3.03125 3.72386 3.03125 4C3.03125 4.27614 3.25511 4.5 3.53125 4.5V3.5ZM5.55208 4.5C5.82823 4.5 6.05208 4.27614 6.05208 4C6.05208 3.72386 5.82823 3.5 5.55208 3.5V4.5ZM7.57292 3.5C7.29677 3.5 7.07292 3.72386 7.07292 4C7.07292 4.27614 7.29677 4.5 7.57292 4.5V3.5ZM9.59375 4.5C9.86989 4.5 10.0937 4.27614 10.0937 4C10.0937 3.72386 9.86989 3.5 9.59375 3.5V4.5ZM11.6146 3.5C11.3384 3.5 11.1146 3.72386 11.1146 4C11.1146 4.27614 11.3384 4.5 11.6146 4.5V3.5ZM13.6354 4.5C13.9116 4.5 14.1354 4.27614 14.1354 4C14.1354 3.72386 13.9116 3.5 13.6354 3.5V4.5ZM15.6562 3.5C15.3801 3.5 15.1562 3.72386 15.1562 4C15.1562 4.27614 15.3801 4.5 15.6562 4.5V3.5ZM17.6771 4.5C17.9532 4.5 18.1771 4.27614 18.1771 4C18.1771 3.72386 17.9532 3.5 17.6771 3.5V4.5ZM19.6979 3.5C19.4218 3.5 19.1979 3.72386 19.1979 4C19.1979 4.27614 19.4218 4.5 19.6979 4.5V3.5ZM21.7188 4.5C21.9949 4.5 22.2188 4.27614 22.2188 4C22.2188 3.72386 21.9949 3.5 21.7188 3.5V4.5ZM23.7396 3.5C23.4634 3.5 23.2396 3.72386 23.2396 4C23.2396 4.27614 23.4634 4.5 23.7396 4.5V3.5ZM25.7604 4.5C26.0366 4.5 26.2604 4.27614 26.2604 4C26.2604 3.72386 26.0366 3.5 25.7604 3.5V4.5ZM27.7813 3.5C27.5051 3.5 27.2813 3.72386 27.2813 4C27.2813 4.27614 27.5051 4.5 27.7813 4.5V3.5ZM29.8021 4.5C30.0782 4.5 30.3021 4.27614 30.3021 4C30.3021 3.72386 30.0782 3.5 29.8021 3.5V4.5ZM31.8229 3.5C31.5468 3.5 31.3229 3.72386 31.3229 4C31.3229 4.27614 31.5468 4.5 31.8229 4.5V3.5ZM33.8438 4.5C34.1199 4.5 34.3438 4.27614 34.3438 4C34.3438 3.72386 34.1199 3.5 33.8438 3.5V4.5ZM35.8646 3.5C35.5884 3.5 35.3646 3.72386 35.3646 4C35.3646 4.27614 35.5884 4.5 35.8646 4.5V3.5ZM37.8854 4.5C38.1616 4.5 38.3854 4.27614 38.3854 4C38.3854 3.72386 38.1616 3.5 37.8854 3.5V4.5ZM39.9062 3.5C39.6301 3.5 39.4062 3.72386 39.4062 4C39.4062 4.27614 39.6301 4.5 39.9062 4.5V3.5ZM41.9271 4.5C42.2032 4.5 42.4271 4.27614 42.4271 4C42.4271 3.72386 42.2032 3.5 41.9271 3.5V4.5ZM43.9479 3.5C43.6718 3.5 43.4479 3.72386 43.4479 4C43.4479 4.27614 43.6718 4.5 43.9479 4.5V3.5ZM45.9687 4.5C46.2449 4.5 46.4687 4.27614 46.4687 4C46.4687 3.72386 46.2449 3.5 45.9687 3.5V4.5ZM47.9896 3.5C47.7134 3.5 47.4896 3.72386 47.4896 4C47.4896 4.27614 47.7134 4.5 47.9896 4.5V3.5ZM50.0104 4.5C50.2866 4.5 50.5104 4.27614 50.5104 4C50.5104 3.72386 50.2866 3.5 50.0104 3.5V4.5ZM52.0312 3.5C51.7551 3.5 51.5312 3.72386 51.5312 4C51.5312 4.27614 51.7551 4.5 52.0312 4.5V3.5ZM54.0521 4.5C54.3282 4.5 54.5521 4.27614 54.5521 4C54.5521 3.72386 54.3282 3.5 54.0521 3.5V4.5ZM56.0729 3.5C55.7968 3.5 55.5729 3.72386 55.5729 4C55.5729 4.27614 55.7968 4.5 56.0729 4.5V3.5ZM58.0937 4.5C58.3699 4.5 58.5937 4.27614 58.5937 4C58.5937 3.72386 58.3699 3.5 58.0937 3.5V4.5ZM60.1146 3.5C59.8384 3.5 59.6146 3.72386 59.6146 4C59.6146 4.27614 59.8384 4.5 60.1146 4.5V3.5ZM62.1354 4.5C62.4115 4.5 62.6354 4.27614 62.6354 4C62.6354 3.72386 62.4115 3.5 62.1354 3.5V4.5ZM64.1562 3.5C63.8801 3.5 63.6562 3.72386 63.6562 4C63.6562 4.27614 63.8801 4.5 64.1562 4.5V3.5ZM66.1771 4.5C66.4532 4.5 66.6771 4.27614 66.6771 4C66.6771 3.72386 66.4532 3.5 66.1771 3.5V4.5ZM68.1979 3.5C67.9218 3.5 67.6979 3.72386 67.6979 4C67.6979 4.27614 67.9218 4.5 68.1979 4.5V3.5ZM70.2187 4.5C70.4949 4.5 70.7187 4.27614 70.7187 4C70.7187 3.72386 70.4949 3.5 70.2187 3.5V4.5ZM72.2396 3.5C71.9634 3.5 71.7396 3.72386 71.7396 4C71.7396 4.27614 71.9634 4.5 72.2396 4.5V3.5ZM74.2604 4.5C74.5366 4.5 74.7604 4.27614 74.7604 4C74.7604 3.72386 74.5366 3.5 74.2604 3.5V4.5ZM76.2812 3.5C76.0051 3.5 75.7812 3.72386 75.7812 4C75.7812 4.27614 76.0051 4.5 76.2812 4.5V3.5ZM78.3021 4.5C78.5782 4.5 78.8021 4.27614 78.8021 4C78.8021 3.72386 78.5782 3.5 78.3021 3.5V4.5ZM80.3229 3.5C80.0468 3.5 79.8229 3.72386 79.8229 4C79.8229 4.27614 80.0468 4.5 80.3229 4.5V3.5ZM82.3438 4.5C82.6199 4.5 82.8438 4.27614 82.8438 4C82.8438 3.72386 82.6199 3.5 82.3438 3.5V4.5ZM84.3646 3.5C84.0884 3.5 83.8646 3.72386 83.8646 4C83.8646 4.27614 84.0884 4.5 84.3646 4.5V3.5ZM86.3854 4.5C86.6616 4.5 86.8854 4.27614 86.8854 4C86.8854 3.72386 86.6616 3.5 86.3854 3.5V4.5ZM88.4063 3.5C88.1301 3.5 87.9063 3.72386 87.9063 4C87.9063 4.27614 88.1301 4.5 88.4063 4.5V3.5ZM90.4271 4.5C90.7032 4.5 90.9271 4.27614 90.9271 4C90.9271 3.72386 90.7032 3.5 90.4271 3.5V4.5ZM92.4479 3.5C92.1718 3.5 91.9479 3.72386 91.9479 4C91.9479 4.27614 92.1718 4.5 92.4479 4.5V3.5ZM94.4688 4.5C94.7449 4.5 94.9688 4.27614 94.9688 4C94.9688 3.72386 94.7449 3.5 94.4688 3.5V4.5ZM96.4896 3.5C96.2135 3.5 95.9896 3.72386 95.9896 4C95.9896 4.27614 96.2135 4.5 96.4896 4.5V3.5ZM0.5 4.5H1.51042V3.5H0.5V4.5ZM3.53125 4.5H5.55208V3.5H3.53125V4.5ZM7.57292 4.5H9.59375V3.5H7.57292V4.5ZM11.6146 4.5H13.6354V3.5H11.6146V4.5ZM15.6562 4.5H17.6771V3.5H15.6562V4.5ZM19.6979 4.5H21.7188V3.5H19.6979V4.5ZM23.7396 4.5H25.7604V3.5H23.7396V4.5ZM27.7813 4.5H29.8021V3.5H27.7813V4.5ZM31.8229 4.5H33.8438V3.5H31.8229V4.5ZM35.8646 4.5H37.8854V3.5H35.8646V4.5ZM39.9062 4.5H41.9271V3.5H39.9062V4.5ZM43.9479 4.5H45.9687V3.5H43.9479V4.5ZM47.9896 4.5H50.0104V3.5H47.9896V4.5ZM52.0312 4.5H54.0521V3.5H52.0312V4.5ZM56.0729 4.5H58.0937V3.5H56.0729V4.5ZM60.1146 4.5H62.1354V3.5H60.1146V4.5ZM64.1562 4.5H66.1771V3.5H64.1562V4.5ZM68.1979 4.5H70.2187V3.5H68.1979V4.5ZM72.2396 4.5H74.2604V3.5H72.2396V4.5ZM76.2812 4.5H78.3021V3.5H76.2812V4.5ZM80.3229 4.5H82.3438V3.5H80.3229V4.5ZM84.3646 4.5H86.3854V3.5H84.3646V4.5ZM88.4063 4.5H90.4271V3.5H88.4063V4.5ZM92.4479 4.5H94.4688V3.5H92.4479V4.5ZM96.4896 4.5H97.5V3.5H96.4896V4.5Z" fill="url(#paint0_linear_358_298)"/>
<defs>
<linearGradient id="paint0_linear_358_298" x1="-7.23936" y1="4.60417" x2="43.6474" y2="-72.7124" gradientUnits="userSpaceOnUse">
<stop stop-color="#007AFF"/>
<stop offset="1" stop-color="#9E00FF"/>
</linearGradient>
</defs>
</svg>
