<svg width="8" height="48" viewBox="0 0 8 48" fill="none" xmlns="http://www.w3.org/2000/svg">
<path d="M3.64644 47.8536C3.84171 48.0488 4.15829 48.0488 4.35355 47.8536L7.53553 44.6716C7.73079 44.4763 7.73079 44.1597 7.53553 43.9645C7.34027 43.7692 7.02369 43.7692 6.82842 43.9645L4 46.7929L1.17157 43.9645C0.976309 43.7692 0.659726 43.7692 0.464464 43.9645C0.269202 44.1597 0.269202 44.4763 0.464464 44.6716L3.64644 47.8536ZM3.5 0.989583C3.5 1.26573 3.72385 1.48958 4 1.48958C4.27614 1.48958 4.5 1.26573 4.5 0.989583L3.5 0.989583ZM4.5 2.96875C4.5 2.69261 4.27614 2.46875 4 2.46875C3.72385 2.46875 3.5 2.69261 3.5 2.96875L4.5 2.96875ZM3.5 4.94792C3.5 5.22406 3.72385 5.44792 4 5.44792C4.27614 5.44792 4.5 5.22406 4.5 4.94792L3.5 4.94792ZM4.5 6.92708C4.5 6.65094 4.27614 6.42708 4 6.42708C3.72385 6.42708 3.5 6.65094 3.5 6.92708L4.5 6.92708ZM3.5 8.90625C3.5 9.18239 3.72385 9.40625 4 9.40625C4.27614 9.40625 4.5 9.18239 4.5 8.90625L3.5 8.90625ZM4.5 10.8854C4.5 10.6093 4.27614 10.3854 4 10.3854C3.72385 10.3854 3.5 10.6093 3.5 10.8854L4.5 10.8854ZM3.5 12.8646C3.5 13.1407 3.72385 13.3646 4 13.3646C4.27614 13.3646 4.5 13.1407 4.5 12.8646L3.5 12.8646ZM4.5 14.8438C4.5 14.5676 4.27614 14.3438 4 14.3438C3.72385 14.3438 3.5 14.5676 3.5 14.8438L4.5 14.8438ZM3.5 16.8229C3.5 17.0991 3.72385 17.3229 4 17.3229C4.27614 17.3229 4.5 17.0991 4.5 16.8229L3.5 16.8229ZM4.5 18.8021C4.5 18.5259 4.27614 18.3021 4 18.3021C3.72385 18.3021 3.5 18.5259 3.5 18.8021L4.5 18.8021ZM3.5 20.7812C3.5 21.0574 3.72385 21.2812 4 21.2812C4.27614 21.2813 4.5 21.0574 4.5 20.7813L3.5 20.7812ZM4.5 22.7604C4.5 22.4843 4.27614 22.2604 4 22.2604C3.72385 22.2604 3.5 22.4843 3.5 22.7604L4.5 22.7604ZM3.5 24.7396C3.5 25.0157 3.72385 25.2396 4 25.2396C4.27614 25.2396 4.5 25.0157 4.5 24.7396L3.5 24.7396ZM4.5 26.7187C4.5 26.4426 4.27614 26.2187 4 26.2187C3.72385 26.2187 3.5 26.4426 3.5 26.7187L4.5 26.7187ZM3.5 28.6979C3.5 28.9741 3.72385 29.1979 4 29.1979C4.27614 29.1979 4.5 28.9741 4.5 28.6979L3.5 28.6979ZM4.5 30.6771C4.5 30.4009 4.27614 30.1771 4 30.1771C3.72385 30.1771 3.5 30.4009 3.5 30.6771L4.5 30.6771ZM3.5 32.6562C3.5 32.9324 3.72385 33.1562 4 33.1562C4.27614 33.1562 4.5 32.9324 4.5 32.6562L3.5 32.6562ZM4.5 34.6354C4.5 34.3593 4.27614 34.1354 4 34.1354C3.72385 34.1354 3.5 34.3593 3.5 34.6354L4.5 34.6354ZM3.5 36.6146C3.5 36.8907 3.72386 37.1146 4 37.1146C4.27614 37.1146 4.5 36.8907 4.5 36.6146L3.5 36.6146ZM4.5 38.5938C4.5 38.3176 4.27614 38.0938 4 38.0937C3.72386 38.0937 3.5 38.3176 3.5 38.5937L4.5 38.5938ZM3.5 40.5729C3.5 40.8491 3.72386 41.0729 4 41.0729C4.27614 41.0729 4.5 40.8491 4.5 40.5729L3.5 40.5729ZM4.5 42.5521C4.5 42.2759 4.27614 42.0521 4 42.0521C3.72386 42.0521 3.5 42.2759 3.5 42.5521L4.5 42.5521ZM3.5 44.5313C3.5 44.8074 3.72386 45.0313 4 45.0313C4.27614 45.0313 4.5 44.8074 4.5 44.5313L3.5 44.5313ZM4.5 46.5104C4.5 46.2343 4.27614 46.0104 4 46.0104C3.72386 46.0104 3.5 46.2343 3.5 46.5104L4.5 46.5104ZM3.5 2.11653e-08L3.5 0.989583L4.5 0.989583L4.5 -2.11657e-08L3.5 2.11653e-08ZM3.5 2.96875L3.5 4.94792L4.5 4.94792L4.5 2.96875L3.5 2.96875ZM3.5 6.92708L3.5 8.90625L4.5 8.90625L4.5 6.92708L3.5 6.92708ZM3.5 10.8854L3.5 12.8646L4.5 12.8646L4.5 10.8854L3.5 10.8854ZM3.5 14.8438L3.5 16.8229L4.5 16.8229L4.5 14.8438L3.5 14.8438ZM3.5 18.8021L3.5 20.7812L4.5 20.7813L4.5 18.8021L3.5 18.8021ZM3.5 22.7604L3.5 24.7396L4.5 24.7396L4.5 22.7604L3.5 22.7604ZM3.5 26.7187L3.5 28.6979L4.5 28.6979L4.5 26.7187L3.5 26.7187ZM3.5 30.6771L3.5 32.6562L4.5 32.6562L4.5 30.6771L3.5 30.6771ZM3.5 34.6354L3.5 36.6146L4.5 36.6146L4.5 34.6354L3.5 34.6354ZM3.5 38.5937L3.5 40.5729L4.5 40.5729L4.5 38.5938L3.5 38.5937ZM3.5 42.5521L3.5 44.5313L4.5 44.5313L4.5 42.5521L3.5 42.5521ZM3.5 46.5104L3.5 47.5L4.5 47.5L4.5 46.5104L3.5 46.5104Z" fill="url(#paint0_linear_358_304)"/>
<defs>
<linearGradient id="paint0_linear_358_304" x1="4" y1="-3.78989" x2="4.00045" y2="-3.78989" gradientUnits="userSpaceOnUse">
<stop stop-color="#007AFF"/>
<stop offset="1" stop-color="#9E00FF"/>
</linearGradient>
</defs>
</svg>
