<svg width="45" height="54" viewBox="0 0 45 54" fill="none" xmlns="http://www.w3.org/2000/svg">
<rect x="5.48764" width="35.3411" height="50.9819" rx="2.73469" fill="#A8D0FF"/>
<ellipse cx="23.5972" cy="21.4257" rx="11.9633" ry="11.9764" fill="#00A1FF"/>
<rect x="23.7075" y="21.5355" width="21.2924" height="18.8985" rx="2.73469" fill="#2D74FF"/>
<path fill-rule="evenodd" clip-rule="evenodd" d="M35.5598 21.5356C35.5012 28.0627 30.2269 33.3429 23.7068 33.4016V24.2702C23.7068 22.7599 24.9312 21.5356 26.4415 21.5356H35.5598Z" fill="white"/>
<path d="M15.4061 9.08235L5.48754 8.81619L17.1216 0.182514L15.4061 9.08235Z" fill="#2D74FF"/>
<ellipse cx="8.34137" cy="45.488" rx="8.34137" ry="8.35049" fill="white"/>
<path d="M7.93036 48.5647C7.93036 48.7912 8.11401 48.9749 8.34056 48.9749C8.56711 48.9749 8.75077 48.7912 8.75077 48.5647L7.93036 48.5647ZM8.63062 42.4512C8.47042 42.291 8.2107 42.291 8.0505 42.4512L5.43998 45.0618C5.27979 45.222 5.27979 45.4817 5.43998 45.6419C5.60017 45.8021 5.8599 45.8021 6.0201 45.6419L8.34056 43.3214L10.661 45.6419C10.8212 45.8021 11.0809 45.8021 11.2411 45.6419C11.4013 45.4817 11.4013 45.222 11.2411 45.0618L8.63062 42.4512ZM8.75077 48.5647L8.75076 42.7413L7.93036 42.7413L7.93036 48.5647L8.75077 48.5647Z" fill="#2D74FF"/>
</svg>
