<svg width="512" height="280" viewBox="0 0 512 280" fill="none" xmlns="http://www.w3.org/2000/svg">
<rect x="338.257" y="42.2571" width="170.784" height="235.486" stroke="#2D74FF" stroke-width="4.51411"/>
<path d="M356 54.2947H488.79" stroke="#2D74FF" stroke-width="2.25705"/>
<path d="M356 69.3418H488.79" stroke="#2D74FF" stroke-width="2.25705"/>
<path d="M361 76.8652H483.257" stroke="#2D74FF" stroke-width="2.25705"/>
<path d="M363 155.11H485.257" stroke="#2D74FF" stroke-width="2.25705"/>
<path d="M360 246.896H398.746" stroke="#2D74FF" stroke-width="2.25705"/>
<path d="M405.784 246.896H442.107" stroke="#2D74FF" stroke-width="2.25705"/>
<path d="M409.774 264.201H438.887" stroke="#2D74FF" stroke-width="3.0094"/>
<path d="M448.768 246.896H487.514" stroke="#2D74FF" stroke-width="2.25705"/>
<path d="M377 61.8181H467.282" stroke="#2D74FF" stroke-width="2.25705"/>
<path d="M368 139.31H478.972" stroke="#2D74FF" stroke-width="6.77116"/>
<path d="M377.032 169.122H377.917V173.251C377.917 173.427 377.913 173.62 377.906 173.83C377.906 174.034 377.903 174.238 377.896 174.441C377.889 174.645 377.878 174.827 377.864 174.989C377.857 175.143 377.85 175.263 377.843 175.347H377.885L382.025 169.122H383.078V176.643H382.193V172.556C382.193 172.366 382.197 172.163 382.204 171.945C382.211 171.72 382.218 171.506 382.225 171.302C382.239 171.092 382.25 170.906 382.257 170.744C382.264 170.583 382.271 170.463 382.278 170.386H382.235L378.086 176.643H377.032V169.122ZM389.52 172.419C389.52 172.77 389.414 173.044 389.204 173.24C388.993 173.437 388.723 173.57 388.393 173.641V173.683C388.744 173.732 389.049 173.858 389.309 174.062C389.569 174.259 389.699 174.568 389.699 174.989C389.699 175.228 389.653 175.449 389.562 175.652C389.478 175.856 389.344 176.032 389.162 176.179C388.979 176.327 388.744 176.442 388.456 176.527C388.168 176.604 387.821 176.643 387.413 176.643H384.98V170.997H387.403C387.803 170.997 388.161 171.043 388.477 171.134C388.8 171.218 389.053 171.366 389.235 171.576C389.425 171.78 389.52 172.061 389.52 172.419ZM388.74 174.989C388.74 174.666 388.617 174.434 388.372 174.294C388.126 174.153 387.764 174.083 387.287 174.083H385.907V175.895H387.308C387.771 175.895 388.126 175.828 388.372 175.695C388.617 175.554 388.74 175.319 388.74 174.989ZM388.582 172.535C388.582 172.268 388.484 172.075 388.287 171.955C388.098 171.829 387.785 171.766 387.35 171.766H385.907V173.314H387.182C387.638 173.314 387.986 173.251 388.224 173.125C388.463 172.998 388.582 172.802 388.582 172.535ZM393.187 170.902C393.875 170.902 394.384 171.053 394.714 171.355C395.044 171.657 395.209 172.138 395.209 172.798V176.643H394.535L394.356 175.842H394.314C394.153 176.046 393.984 176.218 393.809 176.358C393.64 176.492 393.443 176.59 393.219 176.653C393.001 176.716 392.734 176.748 392.418 176.748C392.081 176.748 391.776 176.688 391.502 176.569C391.235 176.449 391.024 176.267 390.87 176.021C390.715 175.768 390.638 175.452 390.638 175.073C390.638 174.511 390.859 174.08 391.302 173.778C391.744 173.469 392.425 173.3 393.345 173.272L394.304 173.24V172.903C394.304 172.433 394.202 172.106 393.998 171.924C393.794 171.741 393.507 171.65 393.134 171.65C392.839 171.65 392.559 171.696 392.292 171.787C392.025 171.871 391.776 171.969 391.544 172.082L391.26 171.387C391.505 171.253 391.797 171.141 392.134 171.05C392.471 170.951 392.822 170.902 393.187 170.902ZM393.461 173.915C392.759 173.943 392.271 174.055 391.997 174.252C391.73 174.448 391.597 174.726 391.597 175.084C391.597 175.4 391.691 175.631 391.881 175.779C392.078 175.926 392.327 176 392.629 176C393.106 176 393.503 175.87 393.819 175.61C394.135 175.344 394.293 174.936 394.293 174.389V173.883L393.461 173.915ZM397.88 170.997V173.346H400.945V170.997H401.872V176.643H400.945V174.125H397.88V176.643H396.953V170.997H397.88ZM408.568 173.809C408.568 174.28 408.505 174.697 408.378 175.063C408.259 175.421 408.083 175.726 407.852 175.979C407.627 176.232 407.35 176.425 407.02 176.558C406.697 176.685 406.335 176.748 405.935 176.748C405.563 176.748 405.218 176.685 404.902 176.558C404.586 176.425 404.313 176.232 404.081 175.979C403.849 175.726 403.667 175.421 403.533 175.063C403.407 174.697 403.344 174.28 403.344 173.809C403.344 173.184 403.449 172.658 403.66 172.229C403.87 171.794 404.172 171.464 404.565 171.239C404.959 171.007 405.426 170.892 405.966 170.892C406.479 170.892 406.928 171.007 407.315 171.239C407.708 171.464 408.013 171.794 408.231 172.229C408.456 172.658 408.568 173.184 408.568 173.809ZM404.302 173.809C404.302 174.252 404.358 174.638 404.471 174.968C404.59 175.291 404.773 175.54 405.018 175.716C405.264 175.891 405.577 175.979 405.956 175.979C406.335 175.979 406.647 175.891 406.893 175.716C407.139 175.54 407.318 175.291 407.43 174.968C407.55 174.638 407.609 174.252 407.609 173.809C407.609 173.36 407.55 172.977 407.43 172.661C407.311 172.345 407.128 172.103 406.883 171.934C406.644 171.759 406.331 171.671 405.945 171.671C405.369 171.671 404.952 171.861 404.692 172.24C404.432 172.619 404.302 173.142 404.302 173.809ZM414.577 172.419C414.577 172.77 414.471 173.044 414.261 173.24C414.05 173.437 413.78 173.57 413.45 173.641V173.683C413.801 173.732 414.106 173.858 414.366 174.062C414.626 174.259 414.756 174.568 414.756 174.989C414.756 175.228 414.71 175.449 414.619 175.652C414.535 175.856 414.401 176.032 414.219 176.179C414.036 176.327 413.801 176.442 413.513 176.527C413.225 176.604 412.877 176.643 412.47 176.643H410.037V170.997H412.46C412.86 170.997 413.218 171.043 413.534 171.134C413.857 171.218 414.11 171.366 414.292 171.576C414.482 171.78 414.577 172.061 414.577 172.419ZM413.797 174.989C413.797 174.666 413.674 174.434 413.429 174.294C413.183 174.153 412.821 174.083 412.344 174.083H410.964V175.895H412.365C412.828 175.895 413.183 175.828 413.429 175.695C413.674 175.554 413.797 175.319 413.797 174.989ZM413.639 172.535C413.639 172.268 413.541 172.075 413.344 171.955C413.155 171.829 412.842 171.766 412.407 171.766H410.964V173.314H412.238C412.695 173.314 413.042 173.251 413.281 173.125C413.52 172.998 413.639 172.802 413.639 172.535ZM419.521 174.441C419.521 174.504 419.517 174.596 419.51 174.715C419.51 174.827 419.507 174.95 419.5 175.084C419.493 175.21 419.485 175.333 419.478 175.452C419.471 175.565 419.464 175.656 419.457 175.726L422.48 170.997H423.618V176.643H422.754V173.314C422.754 173.202 422.754 173.054 422.754 172.872C422.761 172.689 422.768 172.51 422.775 172.335C422.782 172.152 422.789 172.015 422.796 171.924L419.794 176.643H418.646V170.997H419.521V174.441ZM431.305 169.849C430.904 169.849 430.543 169.919 430.22 170.06C429.897 170.193 429.623 170.393 429.398 170.66C429.174 170.92 429.002 171.239 428.882 171.618C428.763 171.991 428.703 172.412 428.703 172.882C428.703 173.5 428.798 174.037 428.987 174.494C429.184 174.95 429.472 175.301 429.851 175.547C430.237 175.793 430.718 175.916 431.294 175.916C431.624 175.916 431.937 175.888 432.232 175.832C432.527 175.775 432.814 175.705 433.095 175.621V176.442C432.814 176.548 432.523 176.625 432.221 176.674C431.926 176.723 431.572 176.748 431.157 176.748C430.392 176.748 429.753 176.59 429.24 176.274C428.728 175.958 428.341 175.509 428.082 174.926C427.829 174.343 427.702 173.658 427.702 172.872C427.702 172.303 427.78 171.783 427.934 171.313C428.096 170.842 428.327 170.435 428.629 170.091C428.938 169.747 429.318 169.484 429.767 169.301C430.216 169.112 430.732 169.017 431.315 169.017C431.701 169.017 432.074 169.055 432.432 169.133C432.79 169.21 433.109 169.319 433.39 169.459L433.011 170.26C432.779 170.154 432.52 170.06 432.232 169.975C431.951 169.891 431.642 169.849 431.305 169.849ZM435.485 174.441C435.485 174.504 435.481 174.596 435.474 174.715C435.474 174.827 435.471 174.95 435.463 175.084C435.456 175.21 435.449 175.333 435.442 175.452C435.435 175.565 435.428 175.656 435.421 175.726L438.444 170.997H439.582V176.643H438.718V173.314C438.718 173.202 438.718 173.054 438.718 172.872C438.725 172.689 438.732 172.51 438.739 172.335C438.746 172.152 438.753 172.015 438.76 171.924L435.758 176.643H434.61V170.997H435.485V174.441ZM445.571 170.997V175.863H446.392V178.602H445.497V176.643H441.568V178.602H440.683V175.863H441.136C441.459 175.414 441.726 174.926 441.937 174.399C442.154 173.865 442.316 173.311 442.421 172.735C442.534 172.152 442.593 171.573 442.6 170.997H445.571ZM443.422 171.724C443.394 172.201 443.32 172.696 443.201 173.209C443.081 173.714 442.927 174.199 442.737 174.662C442.555 175.126 442.341 175.526 442.095 175.863H444.675V171.724H443.422ZM452.407 173.809C452.407 174.28 452.344 174.697 452.217 175.063C452.098 175.421 451.923 175.726 451.691 175.979C451.466 176.232 451.189 176.425 450.859 176.558C450.536 176.685 450.174 176.748 449.774 176.748C449.402 176.748 449.058 176.685 448.742 176.558C448.426 176.425 448.152 176.232 447.92 175.979C447.688 175.726 447.506 175.421 447.372 175.063C447.246 174.697 447.183 174.28 447.183 173.809C447.183 173.184 447.288 172.658 447.499 172.229C447.709 171.794 448.011 171.464 448.405 171.239C448.798 171.007 449.265 170.892 449.805 170.892C450.318 170.892 450.767 171.007 451.154 171.239C451.547 171.464 451.852 171.794 452.07 172.229C452.295 172.658 452.407 173.184 452.407 173.809ZM448.141 173.809C448.141 174.252 448.197 174.638 448.31 174.968C448.429 175.291 448.612 175.54 448.857 175.716C449.103 175.891 449.416 175.979 449.795 175.979C450.174 175.979 450.487 175.891 450.732 175.716C450.978 175.54 451.157 175.291 451.27 174.968C451.389 174.638 451.449 174.252 451.449 173.809C451.449 173.36 451.389 172.977 451.27 172.661C451.15 172.345 450.968 172.103 450.722 171.934C450.483 171.759 450.171 171.671 449.784 171.671C449.209 171.671 448.791 171.861 448.531 172.24C448.271 172.619 448.141 173.142 448.141 173.809ZM456.562 170.892C457.257 170.892 457.815 171.134 458.237 171.618C458.665 172.103 458.879 172.833 458.879 173.809C458.879 174.448 458.781 174.989 458.584 175.431C458.395 175.867 458.124 176.197 457.773 176.421C457.429 176.639 457.022 176.748 456.551 176.748C456.264 176.748 456.007 176.709 455.783 176.632C455.558 176.555 455.365 176.456 455.203 176.337C455.049 176.211 454.915 176.074 454.803 175.926H454.74C454.754 176.046 454.768 176.197 454.782 176.379C454.796 176.562 454.803 176.72 454.803 176.853V179.17H453.876V170.997H454.634L454.761 171.766H454.803C454.915 171.604 455.049 171.457 455.203 171.323C455.365 171.19 455.554 171.085 455.772 171.007C455.997 170.93 456.26 170.892 456.562 170.892ZM456.393 171.671C456.014 171.671 455.709 171.745 455.477 171.892C455.245 172.033 455.077 172.247 454.972 172.535C454.866 172.823 454.81 173.188 454.803 173.63V173.809C454.803 174.273 454.852 174.666 454.95 174.989C455.049 175.312 455.214 175.558 455.445 175.726C455.684 175.895 456.007 175.979 456.415 175.979C456.759 175.979 457.039 175.884 457.257 175.695C457.482 175.505 457.647 175.249 457.752 174.926C457.865 174.596 457.921 174.22 457.921 173.799C457.921 173.153 457.794 172.637 457.542 172.25C457.296 171.864 456.913 171.671 456.393 171.671ZM465.265 173.809C465.265 174.28 465.201 174.697 465.075 175.063C464.956 175.421 464.78 175.726 464.548 175.979C464.324 176.232 464.046 176.425 463.716 176.558C463.393 176.685 463.032 176.748 462.631 176.748C462.259 176.748 461.915 176.685 461.599 176.558C461.283 176.425 461.009 176.232 460.778 175.979C460.546 175.726 460.363 175.421 460.23 175.063C460.104 174.697 460.04 174.28 460.04 173.809C460.04 173.184 460.146 172.658 460.356 172.229C460.567 171.794 460.869 171.464 461.262 171.239C461.655 171.007 462.122 170.892 462.663 170.892C463.176 170.892 463.625 171.007 464.011 171.239C464.404 171.464 464.71 171.794 464.928 172.229C465.152 172.658 465.265 173.184 465.265 173.809ZM460.999 173.809C460.999 174.252 461.055 174.638 461.167 174.968C461.287 175.291 461.469 175.54 461.715 175.716C461.961 175.891 462.273 175.979 462.652 175.979C463.032 175.979 463.344 175.891 463.59 175.716C463.836 175.54 464.015 175.291 464.127 174.968C464.246 174.638 464.306 174.252 464.306 173.809C464.306 173.36 464.246 172.977 464.127 172.661C464.008 172.345 463.825 172.103 463.579 171.934C463.341 171.759 463.028 171.671 462.642 171.671C462.066 171.671 461.648 171.861 461.389 172.24C461.129 172.619 460.999 173.142 460.999 173.809ZM471.273 172.419C471.273 172.77 471.168 173.044 470.957 173.24C470.747 173.437 470.476 173.57 470.146 173.641V173.683C470.497 173.732 470.803 173.858 471.063 174.062C471.322 174.259 471.452 174.568 471.452 174.989C471.452 175.228 471.407 175.449 471.315 175.652C471.231 175.856 471.098 176.032 470.915 176.179C470.733 176.327 470.497 176.442 470.21 176.527C469.922 176.604 469.574 176.643 469.167 176.643H466.734V170.997H469.156C469.556 170.997 469.915 171.043 470.231 171.134C470.554 171.218 470.806 171.366 470.989 171.576C471.179 171.78 471.273 172.061 471.273 172.419ZM470.494 174.989C470.494 174.666 470.371 174.434 470.125 174.294C469.879 174.153 469.518 174.083 469.04 174.083H467.661V175.895H469.061C469.525 175.895 469.879 175.828 470.125 175.695C470.371 175.554 470.494 175.319 470.494 174.989ZM470.336 172.535C470.336 172.268 470.238 172.075 470.041 171.955C469.851 171.829 469.539 171.766 469.104 171.766H467.661V173.314H468.935C469.391 173.314 469.739 173.251 469.978 173.125C470.217 172.998 470.336 172.802 470.336 172.535Z" fill="#2D74FF"/>
<path d="M282.508 118.997L284.387 119.088L282.508 118.997ZM338.12 156.641C338.385 155.637 337.785 154.608 336.781 154.343L320.413 150.025C319.408 149.76 318.379 150.36 318.114 151.364C317.849 152.369 318.449 153.398 319.453 153.663L334.003 157.5L330.165 172.05C329.9 173.054 330.5 174.083 331.504 174.348C332.508 174.613 333.538 174.014 333.802 173.009L338.12 156.641ZM234.569 85.51C236.138 85.6482 238.109 85.5837 240.236 85.4784C242.411 85.3707 244.794 85.2173 247.361 85.1432C252.487 84.9952 258.076 85.1773 263.191 86.6443C268.266 88.1 272.81 90.7999 275.993 95.6775C279.195 100.584 281.165 107.916 280.629 118.905L284.387 119.088C284.947 107.603 282.916 99.4027 279.143 93.6217C275.352 87.8118 269.948 84.6688 264.228 83.0283C258.547 81.3991 252.493 81.2317 247.252 81.383C244.635 81.4586 242.154 81.6171 240.05 81.7212C237.897 81.8278 236.174 81.875 234.899 81.7627L234.569 85.51ZM280.629 118.905C279.868 134.52 282.177 145.369 286.48 152.683C290.83 160.075 297.113 163.678 303.811 164.957C310.434 166.222 317.416 165.212 323.358 163.535C329.313 161.854 334.38 159.457 337.248 157.786L335.354 154.536C332.74 156.059 327.965 158.326 322.336 159.915C316.693 161.508 310.347 162.375 304.517 161.262C298.761 160.163 293.464 157.133 289.723 150.775C285.935 144.339 283.644 134.32 284.387 119.088L280.629 118.905Z" fill="#2D74FF"/>
<path d="M2.25708 76.8652H233.229" stroke="#2D74FF" stroke-width="3.76176"/>
<path d="M2.25708 116.74H233.229" stroke="#2D74FF" stroke-width="3.76176"/>
<rect x="1.88088" y="46.395" width="231.724" height="120.376" stroke="#2D74FF" stroke-width="3.76176"/>
<path d="M50.0312 46.395V167.9" stroke="#2D74FF" stroke-width="3.76176"/>
<path d="M16.3111 68.0283V55.3888H19.8862V68.0283H16.3111ZM22.4298 68.0283V55.3888H28.4065C29.8028 55.3888 31.0307 55.6476 32.09 56.1652C33.1493 56.6829 33.9739 57.4111 34.5637 58.3501C35.1656 59.289 35.4665 60.4085 35.4665 61.7086C35.4665 62.9966 35.1656 64.1161 34.5637 65.0671C33.9739 66.006 33.1493 66.7343 32.09 67.2519C31.0307 67.7695 29.8028 68.0283 28.4065 68.0283H22.4298ZM26.005 65.1754H28.262C28.9843 65.1754 29.6102 65.043 30.1399 64.7782C30.6816 64.5013 31.1029 64.1041 31.4038 63.5864C31.7048 63.0568 31.8553 62.4308 31.8553 61.7086C31.8553 60.9743 31.7048 60.3483 31.4038 59.8307C31.1029 59.3131 30.6816 58.9219 30.1399 58.657C29.6102 58.3802 28.9843 58.2417 28.262 58.2417H26.005V65.1754Z" fill="#2D74FF"/>
<path d="M116.645 67.27C114.959 67.27 113.533 67.0533 112.365 66.6199C111.21 66.1866 110.331 65.5546 109.729 64.724C109.139 63.8814 108.844 62.8642 108.844 61.6725C108.844 60.4687 109.139 59.4515 109.729 58.6209C110.331 57.7783 111.216 57.1403 112.383 56.7069C113.551 56.2736 114.977 56.0569 116.663 56.0569C116.687 56.0569 116.765 56.0569 116.897 56.0569C117.042 56.0569 117.186 56.0569 117.331 56.0569C117.475 56.0569 117.553 56.0569 117.565 56.0569C119.239 56.0569 120.641 56.2796 121.773 56.725C122.916 57.1584 123.783 57.7963 124.373 58.639C124.963 59.4696 125.257 60.4807 125.257 61.6725C125.257 62.8521 124.969 63.8633 124.391 64.7059C123.825 65.5365 122.982 66.1745 121.863 66.6199C120.743 67.0533 119.365 67.27 117.728 67.27C117.704 67.27 117.608 67.27 117.439 67.27C117.271 67.27 117.108 67.27 116.952 67.27C116.795 67.27 116.693 67.27 116.645 67.27ZM116.97 64.5254C117.006 64.5254 117.06 64.5254 117.132 64.5254C117.216 64.5254 117.277 64.5254 117.313 64.5254C118.348 64.5254 119.197 64.4231 119.859 64.2184C120.521 64.0138 121.008 63.7008 121.321 63.2795C121.634 62.8582 121.791 62.3165 121.791 61.6544C121.791 60.9803 121.628 60.4386 121.303 60.0293C120.978 59.62 120.491 59.3191 119.841 59.1265C119.191 58.9219 118.36 58.8195 117.349 58.8195C117.313 58.8195 117.252 58.8195 117.168 58.8195C117.096 58.8195 117.03 58.8195 116.97 58.8195C115.886 58.8195 115.001 58.9158 114.315 59.1084C113.629 59.301 113.124 59.608 112.799 60.0293C112.474 60.4386 112.311 60.9863 112.311 61.6725C112.311 62.3466 112.486 62.8943 112.835 63.3156C113.196 63.7369 113.719 64.0439 114.406 64.2365C115.104 64.4291 115.958 64.5254 116.97 64.5254ZM115.417 68.6242V54.793H118.685V68.6242H115.417ZM127.114 68.0283V55.3888H130.635V62.81L135.854 55.3888H139.212V68.0283H135.691V60.6252L130.491 68.0283H127.114ZM148.138 68.2811C147.127 68.2811 146.194 68.1186 145.339 67.7936C144.484 67.4686 143.738 67.0111 143.1 66.4213C142.474 65.8194 141.987 65.1212 141.637 64.3268C141.288 63.5323 141.114 62.6595 141.114 61.7086C141.114 60.7576 141.288 59.8849 141.637 59.0904C141.987 58.2959 142.474 57.6037 143.1 57.0139C143.738 56.412 144.484 55.9486 145.339 55.6236C146.194 55.2985 147.127 55.136 148.138 55.136C149.161 55.136 150.094 55.2985 150.937 55.6236C151.791 55.9486 152.532 56.412 153.157 57.0139C153.783 57.6037 154.271 58.2959 154.62 59.0904C154.981 59.8849 155.162 60.7576 155.162 61.7086C155.162 62.6595 154.981 63.5383 154.62 64.3448C154.271 65.1393 153.783 65.8315 153.157 66.4213C152.532 67.0111 151.791 67.4686 150.937 67.7936C150.094 68.1186 149.161 68.2811 148.138 68.2811ZM148.138 65.3199C148.619 65.3199 149.065 65.2356 149.474 65.0671C149.895 64.8985 150.256 64.6578 150.557 64.3448C150.87 64.0198 151.111 63.6346 151.28 63.1892C151.46 62.7438 151.55 62.2503 151.55 61.7086C151.55 61.1548 151.46 60.6613 151.28 60.2279C151.111 59.7826 150.87 59.4034 150.557 59.0904C150.256 58.7654 149.895 58.5186 149.474 58.3501C149.065 58.1815 148.619 58.0973 148.138 58.0973C147.656 58.0973 147.205 58.1815 146.784 58.3501C146.374 58.5186 146.013 58.7654 145.7 59.0904C145.399 59.4034 145.158 59.7826 144.978 60.2279C144.809 60.6613 144.725 61.1548 144.725 61.7086C144.725 62.2503 144.809 62.7438 144.978 63.1892C145.158 63.6346 145.399 64.0198 145.7 64.3448C146.013 64.6578 146.374 64.8985 146.784 65.0671C147.205 65.2356 147.656 65.3199 148.138 65.3199Z" fill="#2D74FF"/>
<path d="M24.2738 103.389V92.0312L25.8086 93.5118H21.9265V90.7492H27.849V103.389H24.2738Z" fill="#2D74FF"/>
<path d="M22.3598 145.52V143.281L27.0906 138.857C27.4276 138.544 27.6744 138.268 27.8309 138.027C27.9994 137.786 28.1078 137.569 28.1559 137.377C28.2161 137.172 28.2462 136.986 28.2462 136.817C28.2462 136.408 28.1078 136.089 27.8309 135.86C27.5661 135.631 27.1628 135.517 26.6211 135.517C26.1637 135.517 25.7364 135.619 25.3391 135.824C24.9419 136.029 24.6169 136.336 24.3641 136.745L21.7098 135.264C22.1792 134.47 22.8594 133.832 23.7502 133.35C24.6409 132.869 25.7063 132.628 26.9461 132.628C27.9212 132.628 28.7759 132.784 29.5102 133.097C30.2444 133.41 30.8162 133.856 31.2255 134.434C31.6468 135.011 31.8575 135.692 31.8575 136.474C31.8575 136.883 31.8033 137.293 31.695 137.702C31.5866 138.099 31.376 138.526 31.063 138.984C30.7621 139.429 30.3107 139.929 29.7088 140.483L25.953 143.949L25.3572 142.685H32.2006V145.52H22.3598Z" fill="#2D74FF"/>
<path d="M64.3825 101.389V90.3291H67.4633V96.8227L72.0294 90.3291H74.968V101.389H71.8872V94.9109L67.3369 101.389H64.3825ZM77.1691 101.389V92.8254H81.7667C82.8727 92.8254 83.7364 93.0203 84.3578 93.41C84.9793 93.7892 85.29 94.3369 85.29 95.0531C85.29 95.7378 85.0003 96.2855 84.421 96.6963C83.8522 97.0965 83.0833 97.2966 82.1143 97.2966L82.3829 96.6647C83.4256 96.6647 84.2103 96.8595 84.737 97.2492C85.2742 97.6284 85.5428 98.1867 85.5428 98.924C85.5428 99.6823 85.2478 100.283 84.658 100.725C84.0787 101.167 83.1887 101.389 81.9879 101.389H77.1691ZM79.855 99.4453H81.7193C82.088 99.4453 82.3618 99.3822 82.5409 99.2558C82.7199 99.1188 82.8095 98.9187 82.8095 98.6554C82.8095 98.3815 82.7199 98.1814 82.5409 98.055C82.3724 97.9286 82.109 97.8654 81.7509 97.8654H79.855V99.4453ZM79.855 96.2697H81.4981C81.8562 96.2697 82.1196 96.2065 82.2881 96.0801C82.4566 95.9432 82.5409 95.7483 82.5409 95.4955C82.5409 95.2427 82.4566 95.0584 82.2881 94.9425C82.1196 94.8161 81.8562 94.7529 81.4981 94.7529H79.855V96.2697ZM92.1307 101.389V99.7929L91.9253 99.398V96.4593C91.9253 95.9853 91.7779 95.6219 91.483 95.3691C91.1986 95.1058 90.7404 94.9741 90.1084 94.9741C89.6976 94.9741 89.2816 95.0426 88.8603 95.1795C88.4389 95.3059 88.0808 95.485 87.7859 95.7167L86.7747 93.6786C87.2593 93.3626 87.8386 93.1203 88.5127 92.9518C89.1973 92.7727 89.8767 92.6832 90.5508 92.6832C91.9411 92.6832 93.0155 93.0045 93.7739 93.647C94.5428 94.279 94.9272 95.2743 94.9272 96.6331V101.389H92.1307ZM89.6028 101.531C88.9182 101.531 88.3389 101.415 87.8649 101.183C87.3909 100.952 87.0275 100.636 86.7747 100.235C86.5325 99.8351 86.4114 99.3874 86.4114 98.8924C86.4114 98.3657 86.543 97.9128 86.8063 97.5336C87.0802 97.1439 87.4962 96.849 88.0545 96.6489C88.6127 96.4382 89.3342 96.3329 90.219 96.3329H92.2413V97.897H90.6298C90.1453 97.897 89.803 97.976 89.6028 98.134C89.4132 98.292 89.3184 98.5027 89.3184 98.766C89.3184 99.0293 89.4185 99.24 89.6186 99.398C89.8188 99.5559 90.0926 99.6349 90.4402 99.6349C90.7667 99.6349 91.0616 99.5559 91.325 99.398C91.5988 99.2294 91.7989 98.9766 91.9253 98.6396L92.3361 99.7455C92.1781 100.335 91.8674 100.783 91.404 101.088C90.951 101.383 90.3507 101.531 89.6028 101.531ZM96.7332 101.389V92.8254H99.7192V96.0011H102.8V92.8254H105.802V101.389H102.8V98.3868H99.7192V101.389H96.7332ZM112.045 101.531C111.108 101.531 110.276 101.341 109.549 100.962C108.822 100.583 108.248 100.062 107.827 99.398C107.416 98.7238 107.21 97.9549 107.21 97.0912C107.21 96.2275 107.416 95.4639 107.827 94.8003C108.248 94.1368 108.822 93.6206 109.549 93.252C110.276 92.8728 111.108 92.6832 112.045 92.6832C112.983 92.6832 113.815 92.8728 114.541 93.252C115.279 93.6206 115.853 94.1368 116.264 94.8003C116.674 95.4639 116.88 96.2275 116.88 97.0912C116.88 97.9549 116.674 98.7238 116.264 99.398C115.853 100.062 115.279 100.583 114.541 100.962C113.815 101.341 112.983 101.531 112.045 101.531ZM112.045 99.1452C112.393 99.1452 112.698 99.0662 112.961 98.9082C113.235 98.7502 113.451 98.5185 113.609 98.213C113.767 97.897 113.846 97.5231 113.846 97.0912C113.846 96.6594 113.767 96.296 113.609 96.0011C113.451 95.6956 113.235 95.4639 112.961 95.3059C112.698 95.1479 112.393 95.0689 112.045 95.0689C111.708 95.0689 111.403 95.1479 111.129 95.3059C110.865 95.4639 110.649 95.6956 110.481 96.0011C110.323 96.296 110.244 96.6594 110.244 97.0912C110.244 97.5231 110.323 97.897 110.481 98.213C110.649 98.5185 110.865 98.7502 111.129 98.9082C111.403 99.0662 111.708 99.1452 112.045 99.1452ZM118.288 101.389V92.8254H122.885C123.991 92.8254 124.855 93.0203 125.476 93.41C126.098 93.7892 126.408 94.3369 126.408 95.0531C126.408 95.7378 126.119 96.2855 125.539 96.6963C124.971 97.0965 124.202 97.2966 123.233 97.2966L123.501 96.6647C124.544 96.6647 125.329 96.8595 125.855 97.2492C126.393 97.6284 126.661 98.1867 126.661 98.924C126.661 99.6823 126.366 100.283 125.776 100.725C125.197 101.167 124.307 101.389 123.106 101.389H118.288ZM120.973 99.4453H122.838C123.206 99.4453 123.48 99.3822 123.659 99.2558C123.838 99.1188 123.928 98.9187 123.928 98.6554C123.928 98.3815 123.838 98.1814 123.659 98.055C123.491 97.9286 123.228 97.8654 122.869 97.8654H120.973V99.4453ZM120.973 96.2697H122.617C122.975 96.2697 123.238 96.2065 123.407 96.0801C123.575 95.9432 123.659 95.7483 123.659 95.4955C123.659 95.2427 123.575 95.0584 123.407 94.9425C123.238 94.8161 122.975 94.7529 122.617 94.7529H120.973V96.2697ZM132.775 101.389V92.8254H135.762V97.3124L139.348 92.8254H142.113V101.389H139.111V96.8858L135.556 101.389H132.775ZM154.291 101.61C153.416 101.61 152.605 101.473 151.857 101.199C151.12 100.915 150.478 100.514 149.93 99.9983C149.393 99.4822 148.971 98.8766 148.666 98.1814C148.36 97.4757 148.208 96.7015 148.208 95.8589C148.208 95.0163 148.36 94.2474 148.666 93.5522C148.971 92.8465 149.393 92.2356 149.93 91.7195C150.478 91.2033 151.12 90.8084 151.857 90.5345C152.605 90.2501 153.416 90.1079 154.291 90.1079C155.312 90.1079 156.223 90.287 157.024 90.6451C157.835 91.0032 158.509 91.5193 159.046 92.1934L157.055 93.9946C156.697 93.5732 156.302 93.252 155.87 93.0308C155.449 92.8096 154.975 92.699 154.449 92.699C153.996 92.699 153.58 92.7727 153.2 92.9202C152.821 93.0677 152.495 93.2836 152.221 93.568C151.957 93.8418 151.747 94.1736 151.589 94.5633C151.441 94.9531 151.368 95.3849 151.368 95.8589C151.368 96.3329 151.441 96.7647 151.589 97.1544C151.747 97.5442 151.957 97.8812 152.221 98.1656C152.495 98.4395 152.821 98.6501 153.2 98.7976C153.58 98.945 153.996 99.0188 154.449 99.0188C154.975 99.0188 155.449 98.9082 155.87 98.687C156.302 98.4658 156.697 98.1445 157.055 97.7232L159.046 99.5243C158.509 100.188 157.835 100.704 157.024 101.073C156.223 101.431 155.312 101.61 154.291 101.61ZM160.286 101.389V92.8254H163.272V97.3124L166.858 92.8254H169.623V101.389H166.621V96.8858L163.066 101.389H160.286ZM177.582 100.077V95.2111H175.291L175.259 96.0327C175.238 96.4435 175.212 96.8332 175.18 97.2018C175.159 97.56 175.107 97.8865 175.022 98.1814C174.938 98.4763 174.817 98.7291 174.659 98.9398C174.501 99.1399 174.29 99.2874 174.027 99.3822L171.088 98.9872C171.373 98.9872 171.604 98.9082 171.784 98.7502C171.973 98.5816 172.121 98.3499 172.226 98.055C172.331 97.7601 172.405 97.423 172.447 97.0438C172.5 96.6541 172.537 96.2433 172.558 95.8115L172.668 92.8254H180.584V100.077H177.582ZM170.804 103.158V98.9872H181.769V103.158H178.988V101.389H173.6V103.158H170.804ZM187.277 101.531C186.34 101.531 185.508 101.341 184.781 100.962C184.054 100.583 183.48 100.062 183.059 99.398C182.648 98.7238 182.443 97.9549 182.443 97.0912C182.443 96.2275 182.648 95.4639 183.059 94.8003C183.48 94.1368 184.054 93.6206 184.781 93.252C185.508 92.8728 186.34 92.6832 187.277 92.6832C188.215 92.6832 189.047 92.8728 189.774 93.252C190.511 93.6206 191.085 94.1368 191.496 94.8003C191.906 95.4639 192.112 96.2275 192.112 97.0912C192.112 97.9549 191.906 98.7238 191.496 99.398C191.085 100.062 190.511 100.583 189.774 100.962C189.047 101.341 188.215 101.531 187.277 101.531ZM187.277 99.1452C187.625 99.1452 187.93 99.0662 188.194 98.9082C188.467 98.7502 188.683 98.5185 188.841 98.213C188.999 97.897 189.078 97.5231 189.078 97.0912C189.078 96.6594 188.999 96.296 188.841 96.0011C188.683 95.6956 188.467 95.4639 188.194 95.3059C187.93 95.1479 187.625 95.0689 187.277 95.0689C186.94 95.0689 186.635 95.1479 186.361 95.3059C186.098 95.4639 185.882 95.6956 185.713 96.0011C185.555 96.296 185.476 96.6594 185.476 97.0912C185.476 97.5231 185.555 97.897 185.713 98.213C185.882 98.5185 186.098 98.7502 186.361 98.9082C186.635 99.0662 186.94 99.1452 187.277 99.1452ZM198.907 101.531C198.181 101.531 197.559 101.373 197.043 101.057C196.527 100.73 196.132 100.246 195.858 99.6033C195.595 98.9503 195.463 98.1182 195.463 97.107C195.463 96.0853 195.589 95.2532 195.842 94.6107C196.095 93.9577 196.474 93.4732 196.98 93.1572C197.496 92.8412 198.138 92.6832 198.907 92.6832C199.687 92.6832 200.392 92.8675 201.024 93.2362C201.667 93.5943 202.173 94.1052 202.541 94.7687C202.92 95.4218 203.11 96.2012 203.11 97.107C203.11 98.0129 202.92 98.7976 202.541 99.4611C202.173 100.125 201.667 100.636 201.024 100.994C200.392 101.352 199.687 101.531 198.907 101.531ZM193.52 104.454V92.8254H196.379V94.279L196.364 97.107L196.522 99.9509V104.454H193.52ZM198.275 99.1452C198.612 99.1452 198.913 99.0662 199.176 98.9082C199.45 98.7502 199.666 98.5185 199.824 98.213C199.992 97.9075 200.076 97.5389 200.076 97.107C200.076 96.6752 199.992 96.3065 199.824 96.0011C199.666 95.6956 199.45 95.4639 199.176 95.3059C198.913 95.1479 198.612 95.0689 198.275 95.0689C197.938 95.0689 197.633 95.1479 197.359 95.3059C197.096 95.4639 196.88 95.6956 196.711 96.0011C196.553 96.3065 196.474 96.6752 196.474 97.107C196.474 97.5389 196.553 97.9075 196.711 98.213C196.88 98.5185 197.096 98.7502 197.359 98.9082C197.633 99.0662 197.938 99.1452 198.275 99.1452ZM208.77 101.531C207.833 101.531 207 101.341 206.274 100.962C205.547 100.583 204.973 100.062 204.552 99.398C204.141 98.7238 203.935 97.9549 203.935 97.0912C203.935 96.2275 204.141 95.4639 204.552 94.8003C204.973 94.1368 205.547 93.6206 206.274 93.252C207 92.8728 207.833 92.6832 208.77 92.6832C209.707 92.6832 210.539 92.8728 211.266 93.252C212.004 93.6206 212.578 94.1368 212.988 94.8003C213.399 95.4639 213.605 96.2275 213.605 97.0912C213.605 97.9549 213.399 98.7238 212.988 99.398C212.578 100.062 212.004 100.583 211.266 100.962C210.539 101.341 209.707 101.531 208.77 101.531ZM208.77 99.1452C209.118 99.1452 209.423 99.0662 209.686 98.9082C209.96 98.7502 210.176 98.5185 210.334 98.213C210.492 97.897 210.571 97.5231 210.571 97.0912C210.571 96.6594 210.492 96.296 210.334 96.0011C210.176 95.6956 209.96 95.4639 209.686 95.3059C209.423 95.1479 209.118 95.0689 208.77 95.0689C208.433 95.0689 208.127 95.1479 207.854 95.3059C207.59 95.4639 207.374 95.6956 207.206 96.0011C207.048 96.296 206.969 96.6594 206.969 97.0912C206.969 97.5231 207.048 97.897 207.206 98.213C207.374 98.5185 207.59 98.7502 207.854 98.9082C208.127 99.0662 208.433 99.1452 208.77 99.1452ZM215.012 101.389V92.8254H219.61C220.716 92.8254 221.58 93.0203 222.201 93.41C222.823 93.7892 223.133 94.3369 223.133 95.0531C223.133 95.7378 222.844 96.2855 222.264 96.6963C221.696 97.0965 220.927 97.2966 219.958 97.2966L220.226 96.6647C221.269 96.6647 222.054 96.8595 222.58 97.2492C223.118 97.6284 223.386 98.1867 223.386 98.924C223.386 99.6823 223.091 100.283 222.501 100.725C221.922 101.167 221.032 101.389 219.831 101.389H215.012ZM217.698 99.4453H219.563C219.931 99.4453 220.205 99.3822 220.384 99.2558C220.563 99.1188 220.653 98.9187 220.653 98.6554C220.653 98.3815 220.563 98.1814 220.384 98.055C220.216 97.9286 219.952 97.8654 219.594 97.8654H217.698V99.4453ZM217.698 96.2697H219.341C219.7 96.2697 219.963 96.2065 220.131 96.0801C220.3 95.9432 220.384 95.7483 220.384 95.4955C220.384 95.2427 220.3 95.0584 220.131 94.9425C219.963 94.8161 219.7 94.7529 219.341 94.7529H217.698V96.2697Z" fill="#2D74FF"/>
<path d="M64.3825 145.52V134.461H67.4633V140.954L72.0294 134.461H74.968V145.52H71.8872V139.043L67.3369 145.52H64.3825ZM77.1691 145.52V136.957H81.7667C82.8727 136.957 83.7364 137.152 84.3578 137.542C84.9793 137.921 85.29 138.468 85.29 139.185C85.29 139.869 85.0003 140.417 84.421 140.828C83.8522 141.228 83.0833 141.428 82.1143 141.428L82.3829 140.796C83.4256 140.796 84.2103 140.991 84.737 141.381C85.2742 141.76 85.5428 142.318 85.5428 143.056C85.5428 143.814 85.2478 144.414 84.658 144.857C84.0787 145.299 83.1887 145.52 81.9879 145.52H77.1691ZM79.855 143.577H81.7193C82.088 143.577 82.3618 143.514 82.5409 143.387C82.7199 143.25 82.8095 143.05 82.8095 142.787C82.8095 142.513 82.7199 142.313 82.5409 142.187C82.3724 142.06 82.109 141.997 81.7509 141.997H79.855V143.577ZM79.855 140.401H81.4981C81.8562 140.401 82.1196 140.338 82.2881 140.212C82.4566 140.075 82.5409 139.88 82.5409 139.627C82.5409 139.374 82.4566 139.19 82.2881 139.074C82.1196 138.948 81.8562 138.885 81.4981 138.885H79.855V140.401ZM92.1307 145.52V143.925L91.9253 143.53V140.591C91.9253 140.117 91.7779 139.753 91.483 139.501C91.1986 139.237 90.7404 139.106 90.1084 139.106C89.6976 139.106 89.2816 139.174 88.8603 139.311C88.4389 139.438 88.0808 139.617 87.7859 139.848L86.7747 137.81C87.2593 137.494 87.8386 137.252 88.5127 137.083C89.1973 136.904 89.8767 136.815 90.5508 136.815C91.9411 136.815 93.0155 137.136 93.7739 137.779C94.5428 138.411 94.9272 139.406 94.9272 140.765V145.52H92.1307ZM89.6028 145.662C88.9182 145.662 88.3389 145.547 87.8649 145.315C87.3909 145.083 87.0275 144.767 86.7747 144.367C86.5325 143.967 86.4114 143.519 86.4114 143.024C86.4114 142.497 86.543 142.044 86.8063 141.665C87.0802 141.275 87.4962 140.981 88.0545 140.78C88.6127 140.57 89.3342 140.464 90.219 140.464H92.2413V142.029H90.6298C90.1453 142.029 89.803 142.108 89.6028 142.266C89.4132 142.424 89.3184 142.634 89.3184 142.898C89.3184 143.161 89.4185 143.372 89.6186 143.53C89.8188 143.688 90.0926 143.767 90.4402 143.767C90.7667 143.767 91.0616 143.688 91.325 143.53C91.5988 143.361 91.7989 143.108 91.9253 142.771L92.3361 143.877C92.1781 144.467 91.8674 144.915 91.404 145.22C90.951 145.515 90.3507 145.662 89.6028 145.662ZM96.7332 145.52V136.957H99.7192V140.133H102.8V136.957H105.802V145.52H102.8V142.518H99.7192V145.52H96.7332ZM112.045 145.662C111.108 145.662 110.276 145.473 109.549 145.094C108.822 144.714 108.248 144.193 107.827 143.53C107.416 142.855 107.21 142.087 107.21 141.223C107.21 140.359 107.416 139.595 107.827 138.932C108.248 138.268 108.822 137.752 109.549 137.384C110.276 137.004 111.108 136.815 112.045 136.815C112.983 136.815 113.815 137.004 114.541 137.384C115.279 137.752 115.853 138.268 116.264 138.932C116.674 139.595 116.88 140.359 116.88 141.223C116.88 142.087 116.674 142.855 116.264 143.53C115.853 144.193 115.279 144.714 114.541 145.094C113.815 145.473 112.983 145.662 112.045 145.662ZM112.045 143.277C112.393 143.277 112.698 143.198 112.961 143.04C113.235 142.882 113.451 142.65 113.609 142.345C113.767 142.029 113.846 141.655 113.846 141.223C113.846 140.791 113.767 140.428 113.609 140.133C113.451 139.827 113.235 139.595 112.961 139.438C112.698 139.28 112.393 139.201 112.045 139.201C111.708 139.201 111.403 139.28 111.129 139.438C110.865 139.595 110.649 139.827 110.481 140.133C110.323 140.428 110.244 140.791 110.244 141.223C110.244 141.655 110.323 142.029 110.481 142.345C110.649 142.65 110.865 142.882 111.129 143.04C111.403 143.198 111.708 143.277 112.045 143.277ZM118.288 145.52V136.957H122.885C123.991 136.957 124.855 137.152 125.476 137.542C126.098 137.921 126.408 138.468 126.408 139.185C126.408 139.869 126.119 140.417 125.539 140.828C124.971 141.228 124.202 141.428 123.233 141.428L123.501 140.796C124.544 140.796 125.329 140.991 125.855 141.381C126.393 141.76 126.661 142.318 126.661 143.056C126.661 143.814 126.366 144.414 125.776 144.857C125.197 145.299 124.307 145.52 123.106 145.52H118.288ZM120.973 143.577H122.838C123.206 143.577 123.48 143.514 123.659 143.387C123.838 143.25 123.928 143.05 123.928 142.787C123.928 142.513 123.838 142.313 123.659 142.187C123.491 142.06 123.228 141.997 122.869 141.997H120.973V143.577ZM120.973 140.401H122.617C122.975 140.401 123.238 140.338 123.407 140.212C123.575 140.075 123.659 139.88 123.659 139.627C123.659 139.374 123.575 139.19 123.407 139.074C123.238 138.948 122.975 138.885 122.617 138.885H120.973V140.401ZM132.949 145.52V134.461H136.03V140.954L140.596 134.461H143.535V145.52H140.454V139.043L135.904 145.52H132.949ZM145.736 145.52V136.957H150.334C151.439 136.957 152.303 137.152 152.925 137.542C153.546 137.921 153.857 138.468 153.857 139.185C153.857 139.869 153.567 140.417 152.988 140.828C152.419 141.228 151.65 141.428 150.681 141.428L150.95 140.796C151.992 140.796 152.777 140.991 153.304 141.381C153.841 141.76 154.11 142.318 154.11 143.056C154.11 143.814 153.815 144.414 153.225 144.857C152.645 145.299 151.755 145.52 150.555 145.52H145.736ZM148.422 143.577H150.286C150.655 143.577 150.929 143.514 151.108 143.387C151.287 143.25 151.376 143.05 151.376 142.787C151.376 142.513 151.287 142.313 151.108 142.187C150.939 142.06 150.676 141.997 150.318 141.997H148.422V143.577ZM148.422 140.401H150.065C150.423 140.401 150.686 140.338 150.855 140.212C151.023 140.075 151.108 139.88 151.108 139.627C151.108 139.374 151.023 139.19 150.855 139.074C150.686 138.948 150.423 138.885 150.065 138.885H148.422V140.401ZM160.698 145.52V143.925L160.492 143.53V140.591C160.492 140.117 160.345 139.753 160.05 139.501C159.765 139.237 159.307 139.106 158.675 139.106C158.264 139.106 157.848 139.174 157.427 139.311C157.006 139.438 156.648 139.617 156.353 139.848L155.342 137.81C155.826 137.494 156.405 137.252 157.079 137.083C157.764 136.904 158.443 136.815 159.118 136.815C160.508 136.815 161.582 137.136 162.341 137.779C163.11 138.411 163.494 139.406 163.494 140.765V145.52H160.698ZM158.17 145.662C157.485 145.662 156.906 145.547 156.432 145.315C155.958 145.083 155.594 144.767 155.342 144.367C155.099 143.967 154.978 143.519 154.978 143.024C154.978 142.497 155.11 142.044 155.373 141.665C155.647 141.275 156.063 140.981 156.621 140.78C157.18 140.57 157.901 140.464 158.786 140.464H160.808V142.029H159.197C158.712 142.029 158.37 142.108 158.17 142.266C157.98 142.424 157.885 142.634 157.885 142.898C157.885 143.161 157.985 143.372 158.185 143.53C158.386 143.688 158.659 143.767 159.007 143.767C159.334 143.767 159.628 143.688 159.892 143.53C160.166 143.361 160.366 143.108 160.492 142.771L160.903 143.877C160.745 144.467 160.434 144.915 159.971 145.22C159.518 145.515 158.917 145.662 158.17 145.662ZM165.3 145.52V136.957H168.286V140.133H171.367V136.957H174.369V145.52H171.367V142.518H168.286V145.52H165.3Z" fill="#2D74FF"/>
<path d="M91.032 16.132H99.794V19.408H91.032V16.132ZM91.344 23.62H101.25V27H87.158V8.8H100.912V12.18H91.344V23.62ZM104.735 27L111.001 18.784L110.923 21.02L104.917 13.012H109.467L113.263 18.238L111.547 18.29L115.473 13.012H119.789L113.757 20.942V18.758L119.997 27H115.395L111.417 21.436L113.107 21.67L109.155 27H104.735ZM130.634 27.208C129.126 27.208 127.783 26.9047 126.604 26.298C125.426 25.674 124.498 24.816 123.822 23.724C123.164 22.632 122.834 21.3927 122.834 20.006C122.834 18.602 123.164 17.3627 123.822 16.288C124.498 15.196 125.426 14.3467 126.604 13.74C127.783 13.116 129.126 12.804 130.634 12.804C132.108 12.804 133.39 13.116 134.482 13.74C135.574 14.3467 136.38 15.222 136.9 16.366L133.754 18.056C133.39 17.3973 132.931 16.912 132.376 16.6C131.839 16.288 131.25 16.132 130.608 16.132C129.915 16.132 129.291 16.288 128.736 16.6C128.182 16.912 127.74 17.354 127.41 17.926C127.098 18.498 126.942 19.1913 126.942 20.006C126.942 20.8207 127.098 21.514 127.41 22.086C127.74 22.658 128.182 23.1 128.736 23.412C129.291 23.724 129.915 23.88 130.608 23.88C131.25 23.88 131.839 23.7327 132.376 23.438C132.931 23.126 133.39 22.632 133.754 21.956L136.9 23.672C136.38 24.7987 135.574 25.674 134.482 26.298C133.39 26.9047 132.108 27.208 130.634 27.208ZM148.34 27.208C146.745 27.208 145.341 26.896 144.128 26.272C142.932 25.648 142.005 24.7987 141.346 23.724C140.687 22.632 140.358 21.3927 140.358 20.006C140.358 18.602 140.679 17.3627 141.32 16.288C141.979 15.196 142.871 14.3467 143.998 13.74C145.125 13.116 146.399 12.804 147.82 12.804C149.189 12.804 150.42 13.0987 151.512 13.688C152.621 14.26 153.497 15.092 154.138 16.184C154.779 17.2587 155.1 18.55 155.1 20.058C155.1 20.214 155.091 20.396 155.074 20.604C155.057 20.7947 155.039 20.9767 155.022 21.15H143.66V18.784H152.89L151.33 19.486C151.33 18.758 151.183 18.1253 150.888 17.588C150.593 17.0507 150.186 16.6347 149.666 16.34C149.146 16.028 148.539 15.872 147.846 15.872C147.153 15.872 146.537 16.028 146 16.34C145.48 16.6347 145.073 17.0593 144.778 17.614C144.483 18.1513 144.336 18.7927 144.336 19.538V20.162C144.336 20.9247 144.501 21.6007 144.83 22.19C145.177 22.762 145.653 23.204 146.26 23.516C146.884 23.8107 147.612 23.958 148.444 23.958C149.189 23.958 149.839 23.8453 150.394 23.62C150.966 23.3947 151.486 23.0567 151.954 22.606L154.112 24.946C153.471 25.674 152.665 26.2373 151.694 26.636C150.723 27.0173 149.605 27.208 148.34 27.208ZM160.14 27V7.708H164.196V27H160.14Z" fill="#2D74FF"/>
<path d="M374.13 23.568L373.194 24.53V8.8H377.38V24.53L376.392 23.568H384.088L383.1 24.53V8.8H387.286V27H363.262V8.8H367.448V24.53L366.486 23.568H374.13ZM402.201 27V24.27L401.941 23.672V18.784C401.941 17.9173 401.672 17.2413 401.135 16.756C400.615 16.2707 399.809 16.028 398.717 16.028C397.972 16.028 397.235 16.1493 396.507 16.392C395.796 16.6173 395.19 16.9293 394.687 17.328L393.231 14.494C393.994 13.9567 394.912 13.5407 395.987 13.246C397.062 12.9513 398.154 12.804 399.263 12.804C401.395 12.804 403.05 13.3067 404.229 14.312C405.408 15.3173 405.997 16.886 405.997 19.018V27H402.201ZM397.937 27.208C396.845 27.208 395.909 27.026 395.129 26.662C394.349 26.2807 393.751 25.7693 393.335 25.128C392.919 24.4867 392.711 23.7673 392.711 22.97C392.711 22.138 392.91 21.41 393.309 20.786C393.725 20.162 394.375 19.6767 395.259 19.33C396.143 18.966 397.296 18.784 398.717 18.784H402.435V21.15H399.159C398.206 21.15 397.547 21.306 397.183 21.618C396.836 21.93 396.663 22.32 396.663 22.788C396.663 23.308 396.862 23.724 397.261 24.036C397.677 24.3307 398.24 24.478 398.951 24.478C399.627 24.478 400.234 24.322 400.771 24.01C401.308 23.6807 401.698 23.204 401.941 22.58L402.565 24.452C402.27 25.3533 401.733 26.038 400.953 26.506C400.173 26.974 399.168 27.208 397.937 27.208ZM418.802 27.312C417.658 27.312 416.618 27.1473 415.682 26.818C414.746 26.4713 413.932 25.9427 413.238 25.232C412.562 24.504 412.034 23.5767 411.652 22.45C411.288 21.3233 411.106 19.98 411.106 18.42C411.106 17.3107 411.202 16.2967 411.392 15.378C411.583 14.4593 411.869 13.6273 412.25 12.882C412.632 12.1193 413.117 11.452 413.706 10.88C414.313 10.2907 415.015 9.80533 415.812 9.424C416.627 9.02533 417.546 8.722 418.568 8.514L425.224 7.188L425.77 10.672L419.894 11.842C419.548 11.9113 419.149 12.0067 418.698 12.128C418.265 12.232 417.823 12.3967 417.372 12.622C416.939 12.8473 416.532 13.168 416.15 13.584C415.786 13.9827 415.492 14.5113 415.266 15.17C415.041 15.8113 414.928 16.6087 414.928 17.562C414.928 17.8567 414.937 18.082 414.954 18.238C414.989 18.394 415.015 18.5587 415.032 18.732C415.067 18.9053 415.084 19.174 415.084 19.538L413.784 18.264C414.166 17.4493 414.651 16.756 415.24 16.184C415.847 15.612 416.54 15.1787 417.32 14.884C418.118 14.572 419.002 14.416 419.972 14.416C421.29 14.416 422.442 14.6847 423.43 15.222C424.436 15.742 425.216 16.4787 425.77 17.432C426.325 18.3853 426.602 19.4687 426.602 20.682C426.602 21.9993 426.273 23.1607 425.614 24.166C424.956 25.154 424.037 25.9253 422.858 26.48C421.697 27.0347 420.345 27.312 418.802 27.312ZM419.01 24.166C419.686 24.166 420.284 24.0187 420.804 23.724C421.324 23.412 421.723 23.0047 422 22.502C422.295 21.982 422.442 21.4013 422.442 20.76C422.442 20.136 422.295 19.5813 422 19.096C421.723 18.6107 421.324 18.2293 420.804 17.952C420.284 17.6747 419.678 17.536 418.984 17.536C418.308 17.536 417.702 17.6747 417.164 17.952C416.627 18.212 416.211 18.576 415.916 19.044C415.622 19.512 415.474 20.058 415.474 20.682C415.474 21.3233 415.622 21.9127 415.916 22.45C416.228 22.97 416.644 23.386 417.164 23.698C417.702 24.01 418.317 24.166 419.01 24.166ZM429.723 26.974L429.931 23.646C430.035 23.6633 430.139 23.6807 430.243 23.698C430.347 23.698 430.443 23.698 430.529 23.698C431.015 23.698 431.396 23.5593 431.673 23.282C431.951 23.0047 432.159 22.632 432.297 22.164C432.436 21.6787 432.531 21.1327 432.583 20.526C432.653 19.9193 432.705 19.2867 432.739 18.628L432.947 13.012H444.907V27H440.851V15.352L441.761 16.34H435.625L436.483 15.3L436.301 18.81C436.249 20.058 436.145 21.202 435.989 22.242C435.851 23.282 435.617 24.1833 435.287 24.946C434.958 25.6913 434.516 26.272 433.961 26.688C433.407 27.0867 432.696 27.286 431.829 27.286C431.517 27.286 431.188 27.26 430.841 27.208C430.495 27.156 430.122 27.078 429.723 26.974ZM457.7 27.208C456.209 27.208 454.883 26.896 453.722 26.272C452.578 25.648 451.668 24.7987 450.992 23.724C450.333 22.632 450.004 21.3927 450.004 20.006C450.004 18.602 450.333 17.3627 450.992 16.288C451.668 15.196 452.578 14.3467 453.722 13.74C454.883 13.116 456.209 12.804 457.7 12.804C459.173 12.804 460.491 13.116 461.652 13.74C462.813 14.3467 463.723 15.1873 464.382 16.262C465.041 17.3367 465.37 18.5847 465.37 20.006C465.37 21.3927 465.041 22.632 464.382 23.724C463.723 24.7987 462.813 25.648 461.652 26.272C460.491 26.896 459.173 27.208 457.7 27.208ZM457.7 23.88C458.376 23.88 458.983 23.724 459.52 23.412C460.057 23.1 460.482 22.658 460.794 22.086C461.106 21.4967 461.262 20.8033 461.262 20.006C461.262 19.1913 461.106 18.498 460.794 17.926C460.482 17.354 460.057 16.912 459.52 16.6C458.983 16.288 458.376 16.132 457.7 16.132C457.024 16.132 456.417 16.288 455.88 16.6C455.343 16.912 454.909 17.354 454.58 17.926C454.268 18.498 454.112 19.1913 454.112 20.006C454.112 20.8033 454.268 21.4967 454.58 22.086C454.909 22.658 455.343 23.1 455.88 23.412C456.417 23.724 457.024 23.88 457.7 23.88ZM470.5 27V13.012H474.53V18.472H480.614V13.012H484.67V27H480.614V21.774H474.53V27H470.5Z" fill="#2D74FF"/>
</svg>
