<svg width="1600" height="793" viewBox="0 0 1600 793" fill="none" xmlns="http://www.w3.org/2000/svg">
<path fill-rule="evenodd" clip-rule="evenodd" d="M240.62 69.4369C121.62 54.9369 -27.8803 89.9279 -27.8803 186.437C-49.9153 203.981 -72.3353 235.049 -89.8798 213.014C-107.424 190.979 -96.9154 163.055 -74.8803 145.51C-16.6584 99.1535 77.7144 36.6834 191.62 20.4368C307.785 3.86808 438.11 31.1744 550.404 145.51C637.12 233.803 724.219 293.252 802.62 280.937C883.586 268.219 939.497 239.131 979.12 202.512C1076.58 112.437 1118.29 73.6858 1209.55 57.9067C1305.35 41.3443 1529.41 251.146 1623.47 335.69C1737.24 437.956 1679.28 311.76 1730.35 335.69C1755.91 347.668 1774.96 352.817 1786.51 355.041C1792.31 356.157 1796.28 356.55 1798.31 356.689C1799.05 356.738 1799.53 356.756 1799.76 356.761C1827.37 356.069 1850.62 377.554 1851.96 405.284C1853.32 433.418 1831.61 457.327 1803.48 458.687L1801.02 407.746C1803.48 458.687 1803.43 458.689 1803.39 458.691L1803.29 458.695L1803.1 458.704C1802.96 458.71 1802.81 458.715 1802.66 458.72C1802.35 458.731 1802.01 458.74 1801.64 458.748C1800.89 458.763 1800.01 458.769 1799 458.76C1796.98 458.742 1794.43 458.66 1791.38 458.452C1785.27 458.036 1788.46 423.162 1778.52 421.246C1758.59 417.408 1741.64 402.768 1708.52 387.246C1701.02 387.246 1569.02 304.746 1439.36 202.512C1360.62 144.437 1270.99 101.816 1209.55 112.437C1144.08 123.756 1090.12 186.437 1068.58 217.309L1067.93 217.964L1067.25 218.594C1016.42 265.863 915.62 335.69 821.557 338.729C669.62 343.637 651.404 315.819 540.12 202.512C454.414 115.248 330.581 56.6056 240.62 69.4369Z" fill="#2D74FF" fill-opacity="0.02"/>
<path fill-rule="evenodd" clip-rule="evenodd" d="M240.62 69.4369C121.62 54.9369 -27.8803 89.9279 -27.8803 186.437C-49.9153 203.981 -72.3353 235.049 -89.8798 213.014C-107.424 190.979 -96.9154 163.055 -74.8803 145.51C-16.6584 99.1535 77.7144 36.6834 191.62 20.4368C307.785 3.86808 438.11 31.1744 550.404 145.51C637.12 233.803 724.219 293.252 802.62 280.937C883.586 268.219 939.497 239.131 979.12 202.512C1076.58 112.437 1118.29 73.6858 1209.55 57.9067C1305.35 41.3443 1529.41 251.146 1623.47 335.69C1737.24 437.956 1679.28 311.76 1730.35 335.69C1755.91 347.668 1774.96 352.817 1786.51 355.041C1792.31 356.157 1796.28 356.55 1798.31 356.689C1799.05 356.738 1799.53 356.756 1799.76 356.761C1827.37 356.069 1850.62 377.554 1851.96 405.284C1853.32 433.418 1831.61 457.327 1803.48 458.687L1801.02 407.746C1803.48 458.687 1803.43 458.689 1803.39 458.691L1803.29 458.695L1803.1 458.704C1802.96 458.71 1802.81 458.715 1802.66 458.72C1802.35 458.731 1802.01 458.74 1801.64 458.748C1800.89 458.763 1800.01 458.769 1799 458.76C1796.98 458.742 1794.43 458.66 1791.38 458.452C1785.27 458.036 1788.46 423.162 1778.52 421.246C1758.59 417.408 1741.64 402.768 1708.52 387.246C1701.02 387.246 1569.02 304.746 1439.36 202.512C1360.62 144.437 1270.99 101.816 1209.55 112.437C1144.08 123.756 1090.12 186.437 1068.58 217.309L1067.93 217.964L1067.25 218.594C1016.42 265.863 915.62 335.69 821.557 338.729C669.62 343.637 651.404 315.819 540.12 202.512C454.414 115.248 330.581 56.6056 240.62 69.4369Z" fill="#2D74FF" fill-opacity="0.02"/>
<path fill-rule="evenodd" clip-rule="evenodd" d="M455.44 116.843C336.44 102.343 -101.88 378.653 -115.38 300.407C-137.415 317.951 -72.5147 421.455 -90.0592 399.42C-107.604 377.385 -97.0947 349.461 -75.0597 331.917C-16.8378 285.56 292.535 84.0898 406.441 67.8432C522.605 51.2744 652.93 78.5808 765.224 192.917C851.94 281.209 939.04 340.658 1017.44 328.343C1098.41 315.625 1154.32 286.538 1193.94 249.918C1291.4 159.843 1333.11 121.092 1424.38 105.313C1520.18 88.7507 1744.23 298.552 1838.29 383.096C1952.06 485.362 1894.1 359.166 1945.17 383.096C1970.73 395.075 1989.78 400.223 2001.33 402.448C2007.13 403.564 2011.1 403.956 2013.14 404.095C2013.87 404.145 2014.35 404.162 2014.58 404.168C2042.19 403.475 2065.44 424.96 2066.78 452.691C2068.14 480.825 2046.43 504.734 2018.3 506.093L2015.84 455.153C2018.3 506.093 2018.25 506.095 2018.21 506.098L2018.11 506.102L2017.92 506.11C2017.78 506.116 2017.64 506.121 2017.48 506.127C2017.18 506.137 2016.84 506.147 2016.46 506.154C2015.71 506.169 2014.83 506.176 2013.82 506.167C2011.8 506.149 2009.25 506.067 2006.2 505.859C2000.09 505.443 2003.29 470.568 1993.34 468.653C1973.41 464.815 1956.46 450.174 1923.34 434.653C1915.84 434.653 1784.84 328.153 1655.18 225.918C1576.44 167.843 1485.81 149.222 1424.38 159.843C1358.9 171.163 1304.94 233.843 1283.4 264.715L1282.75 265.37L1282.07 266.001C1231.24 313.269 1130.44 383.096 1036.38 386.135C884.441 391.043 866.225 363.226 754.941 249.918C669.235 162.654 545.401 104.012 455.44 116.843Z" fill="#892DFF" fill-opacity="0.02"/>
<path fill-rule="evenodd" clip-rule="evenodd" d="M455.44 116.843C336.44 102.343 -101.88 378.653 -115.38 300.407C-137.415 317.951 -72.5147 421.455 -90.0592 399.42C-107.604 377.385 -97.0947 349.461 -75.0597 331.917C-16.8378 285.56 292.535 84.0898 406.441 67.8432C522.605 51.2744 652.93 78.5808 765.224 192.917C851.94 281.209 939.04 340.658 1017.44 328.343C1098.41 315.625 1154.32 286.538 1193.94 249.918C1291.4 159.843 1333.11 121.092 1424.38 105.313C1520.18 88.7507 1744.23 298.552 1838.29 383.096C1952.06 485.362 1894.1 359.166 1945.17 383.096C1970.73 395.075 1989.78 400.223 2001.33 402.448C2007.13 403.564 2011.1 403.956 2013.14 404.095C2013.87 404.145 2014.35 404.162 2014.58 404.168C2042.19 403.475 2065.44 424.96 2066.78 452.691C2068.14 480.825 2046.43 504.734 2018.3 506.093L2015.84 455.153C2018.3 506.093 2018.25 506.095 2018.21 506.098L2018.11 506.102L2017.92 506.11C2017.78 506.116 2017.64 506.121 2017.48 506.127C2017.18 506.137 2016.84 506.147 2016.46 506.154C2015.71 506.169 2014.83 506.176 2013.82 506.167C2011.8 506.149 2009.25 506.067 2006.2 505.859C2000.09 505.443 2003.29 470.568 1993.34 468.653C1973.41 464.815 1956.46 450.174 1923.34 434.653C1915.84 434.653 1784.84 328.153 1655.18 225.918C1576.44 167.843 1485.81 149.222 1424.38 159.843C1358.9 171.163 1304.94 233.843 1283.4 264.715L1282.75 265.37L1282.07 266.001C1231.24 313.269 1130.44 383.096 1036.38 386.135C884.441 391.043 866.225 363.226 754.941 249.918C669.235 162.654 545.401 104.012 455.44 116.843Z" fill="#892DFF" fill-opacity="0.02"/>
<path fill-rule="evenodd" clip-rule="evenodd" d="M312.899 258.567C177.086 257.626 -277.628 644.556 -303.238 556.982C-325.692 579.907 -238.89 689.576 -261.563 666.718C-284.236 643.859 -276.132 610.595 -253.678 587.67C-194.349 527.098 126.88 256.45 252.867 222.952C381.352 188.789 531.612 202.867 673.178 318.686C782.497 408.124 909.435 468.864 996 444.514C1085.4 419.367 1123.4 374.529 1163.1 327.515C1260.76 211.873 1305.59 179.915 1406.17 149.921C1511.75 118.438 1788.69 310.836 1905.77 395.031C2047.39 496.874 1965.37 360.383 2026.01 381.006C2056.36 391.329 2078.48 394.708 2091.78 395.732C2098.45 396.245 2102.97 396.173 2105.28 396.064C2106.11 396.025 2106.65 395.981 2106.91 395.957C2137.88 391.544 2166.9 413.025 2172.1 444.514C2177.38 476.46 2156.14 506.609 2124.67 511.854L2115.12 454.01C2124.67 511.854 2124.62 511.862 2124.57 511.87L2124.46 511.888L2124.24 511.923C2124.09 511.948 2123.93 511.973 2123.75 511.999C2123.41 512.051 2123.03 512.107 2122.61 512.164C2121.77 512.279 2120.78 512.403 2119.64 512.525C2117.36 512.77 2114.49 513.011 2111.03 513.174C2104.1 513.5 2103.05 473.259 2091.6 472.377C2068.67 470.611 2047.65 456.117 2008.32 442.74C1999.88 443.724 1838.31 339.307 1678.83 239.585C1582.5 183.604 1478.06 174.235 1410.36 194.424C1338.2 215.941 1264.38 270.395 1244.26 308.473C1193.37 369.117 1102.6 490 996 490C812.099 490 792.414 461.52 671.617 362.692C563.571 274.296 412.401 232.111 312.899 258.567Z" fill="#2D5BFF" fill-opacity="0.06"/>
<path fill-rule="evenodd" clip-rule="evenodd" d="M312.899 258.567C177.086 257.626 -277.628 644.556 -303.238 556.982C-325.692 579.907 -238.89 689.576 -261.563 666.718C-284.236 643.859 -276.132 610.595 -253.678 587.67C-194.349 527.098 126.88 256.45 252.867 222.952C381.352 188.789 531.612 202.867 673.178 318.686C782.497 408.124 909.435 468.864 996 444.514C1085.4 419.367 1123.4 374.529 1163.1 327.515C1260.76 211.873 1305.59 179.915 1406.17 149.921C1511.75 118.438 1788.69 310.836 1905.77 395.031C2047.39 496.874 1965.37 360.383 2026.01 381.006C2056.36 391.329 2078.48 394.708 2091.78 395.732C2098.45 396.245 2102.97 396.173 2105.28 396.064C2106.11 396.025 2106.65 395.981 2106.91 395.957C2137.88 391.544 2166.9 413.025 2172.1 444.514C2177.38 476.46 2156.14 506.609 2124.67 511.854L2115.12 454.01C2124.67 511.854 2124.62 511.862 2124.57 511.87L2124.46 511.888L2124.24 511.923C2124.09 511.948 2123.93 511.973 2123.75 511.999C2123.41 512.051 2123.03 512.107 2122.61 512.164C2121.77 512.279 2120.78 512.403 2119.64 512.525C2117.36 512.77 2114.49 513.011 2111.03 513.174C2104.1 513.5 2103.05 473.259 2091.6 472.377C2068.67 470.611 2047.65 456.117 2008.32 442.74C1999.88 443.724 1838.31 339.307 1678.83 239.585C1582.5 183.604 1478.06 174.235 1410.36 194.424C1338.2 215.941 1264.38 270.395 1244.26 308.473C1193.37 369.117 1102.6 490 996 490C812.099 490 792.414 461.52 671.617 362.692C563.571 274.296 412.401 232.111 312.899 258.567Z" fill="#2D5BFF" fill-opacity="0.06"/>
</svg>
