<svg width="16" height="16" viewBox="0 0 16 16" fill="none" xmlns="http://www.w3.org/2000/svg">
<path d="M15.1475 2.96826C14.9705 2.84438 14.7708 2.7566 14.5598 2.70992C14.3488 2.66324 14.1307 2.65859 13.9179 2.69622C13.7052 2.73386 13.5019 2.81304 13.3197 2.92925C13.1376 3.04546 12.9801 3.19642 12.8563 3.37351L6.60127 12.3065L2.50002 9.50501C2.17108 9.28 1.76624 9.19488 1.37455 9.26837C0.982853 9.34187 0.636397 9.56795 0.411394 9.89688C0.186391 10.2258 0.101272 10.6307 0.174763 11.0224C0.248254 11.414 0.474334 11.7605 0.803269 11.9855L6.30077 15.7405C6.47009 15.8561 6.66143 15.9355 6.86284 15.9737C7.06424 16.012 7.27137 16.0082 7.47127 15.9628C7.68448 15.9255 7.88824 15.8465 8.07087 15.7303C8.2535 15.6142 8.4114 15.4631 8.53552 15.2858L15.553 5.26076C15.8031 4.90278 15.9009 4.46016 15.8248 4.03015C15.7487 3.60014 15.505 3.21793 15.1473 2.96751" fill="#2D74FF"/>
</svg>
